<svg width="145" height="278" viewBox="0 0 145 278" fill="none" xmlns="http://www.w3.org/2000/svg">
    <path d="M115.842 181.695C117.242 182.495 118.542 183.395 119.842 184.295C121.142 185.195 122.442 186.195 123.642 187.295C124.842 188.395 126.042 189.495 127.042 190.595C128.142 191.795 129.142 192.995 130.142 194.295C131.142 195.595 132.042 196.895 132.842 198.195C133.642 199.495 134.442 200.995 135.142 202.395C135.842 203.795 136.442 205.295 137.042 206.795C137.642 208.295 138.142 209.795 138.542 211.395C138.942 212.895 139.342 214.495 139.542 216.095C139.742 217.695 139.942 219.295 140.042 220.895C140.142 222.495 140.142 224.095 140.142 225.695C140.042 227.295 139.942 228.895 139.742 230.495C139.542 232.095 139.242 233.695 138.842 235.195C138.442 236.795 138.042 238.295 137.542 239.795C137.042 241.295 136.442 242.795 135.742 244.295C135.042 245.795 134.342 247.195 133.542 248.595C132.742 249.995 131.842 251.295 130.942 252.595C130.042 253.895 129.042 255.195 127.942 256.395C126.842 257.595 125.742 258.795 124.642 259.795C123.442 260.895 122.242 261.895 120.942 262.895C119.642 263.895 118.342 264.795 117.042 265.595C115.742 266.395 114.242 267.195 112.842 267.895C111.442 268.595 109.942 269.195 108.442 269.795C106.942 270.395 105.442 270.895 103.842 271.295C102.342 271.695 100.742 272.095 99.1419 272.295C97.5419 272.495 95.9419 272.695 94.3419 272.795C92.7419 272.895 91.1419 272.895 89.5419 272.895C87.9419 272.795 86.3419 272.695 84.7419 272.495C83.1419 272.295 81.5419 271.995 80.0419 271.595C78.5419 271.195 76.9419 270.795 75.4419 270.295C73.9419 269.795 72.4419 269.195 70.9419 268.495C69.4419 267.795 68.0419 267.095 66.6419 266.295C65.2419 265.495 63.9419 264.595 62.6419 263.695C61.3419 262.795 60.0419 261.795 58.8419 260.695C57.6419 259.595 56.4419 258.495 55.4419 257.395C54.3419 256.195 53.3419 254.995 52.3419 253.695C51.3419 252.395 50.4419 251.095 49.6419 249.795C48.8419 248.495 48.0419 246.995 47.3419 245.595C46.6419 244.195 46.0419 242.695 45.4419 241.195C44.8419 239.695 44.3419 238.195 43.9419 236.595C43.5419 235.095 43.1419 233.495 42.9419 231.895C42.6419 230.295 42.5419 228.695 42.4419 227.095C42.3419 225.495 42.3419 223.895 42.3419 222.295C42.3419 220.695 42.5419 219.095 42.7419 217.495C42.9419 215.895 43.2419 214.295 43.6419 212.795C44.0419 211.195 44.4419 209.695 44.9419 208.195C45.4419 206.695 46.0419 205.195 46.7419 203.695C47.4419 202.195 48.1419 200.795 48.9419 199.395C49.7419 197.995 50.6419 196.695 51.5419 195.395C52.4419 194.095 53.4419 192.795 54.5419 191.595C55.6419 190.395 56.7419 189.195 57.8419 188.195C59.0419 187.095 60.2419 186.095 61.5419 185.095C62.8419 184.095 64.1419 183.195 65.4419 182.395C66.8419 181.595 68.2419 180.795 69.6419 180.095C71.0419 179.395 72.5419 178.795 74.0419 178.195C75.5419 177.595 77.0419 177.095 78.6419 176.695C80.1419 176.295 81.7419 175.895 83.3419 175.695C84.9419 175.395 86.5419 175.295 88.1419 175.195C89.7419 175.095 91.3419 175.095 92.9419 175.095C94.5419 175.095 96.1419 175.295 97.7419 175.495C99.3419 175.695 100.942 175.995 102.442 176.395C104.042 176.795 105.542 177.195 107.042 177.695C108.542 178.195 110.042 178.795 111.542 179.495C113.042 180.195 114.442 180.895 115.842 181.695Z" fill="#E3122D"/>
    <path d="M116.642 180.395C118.042 181.195 119.442 182.095 120.842 183.095C122.142 184.095 123.442 185.095 124.742 186.195C126.042 187.295 127.142 188.395 128.342 189.595C129.442 190.795 130.542 192.095 131.542 193.395C132.542 194.695 133.442 196.095 134.342 197.495C135.242 198.895 136.042 200.295 136.742 201.795C137.442 203.295 138.142 204.795 138.742 206.295C139.342 207.795 139.842 209.395 140.242 210.995C140.642 212.595 141.042 214.195 141.242 215.795C141.542 217.395 141.742 219.095 141.842 220.695C141.942 222.295 141.942 223.995 141.942 225.595C141.842 227.195 141.742 228.895 141.542 230.495C141.342 232.095 141.042 233.795 140.642 235.395C140.242 236.995 139.842 238.595 139.242 240.195C138.742 241.795 138.142 243.295 137.442 244.795C136.742 246.295 136.042 247.795 135.142 249.195C134.342 250.595 133.442 251.995 132.442 253.395C131.442 254.695 130.442 255.995 129.342 257.295C128.242 258.595 127.142 259.695 125.942 260.895C124.742 261.995 123.442 263.095 122.142 264.095C120.842 265.095 119.442 265.995 118.042 266.895C116.642 267.795 115.242 268.595 113.742 269.295C112.242 269.995 110.742 270.695 109.242 271.295C107.742 271.895 106.142 272.395 104.542 272.795C102.942 273.195 101.342 273.595 99.7419 273.795C98.1419 274.095 96.4419 274.295 94.8419 274.395C93.2419 274.495 91.5419 274.495 89.9419 274.495C88.3419 274.495 86.6419 274.295 85.0419 274.095C83.4419 273.895 81.7419 273.595 80.1419 273.195C78.5419 272.795 76.9419 272.395 75.3419 271.795C73.7419 271.295 72.2419 270.695 70.7419 269.995C69.2419 269.295 67.7419 268.595 66.3419 267.695C64.9419 266.895 63.5419 265.995 62.1419 264.995C60.8419 263.995 59.5419 262.995 58.2419 261.895C56.9419 260.795 55.8419 259.695 54.6419 258.495C53.5419 257.295 52.4419 255.995 51.4419 254.695C50.4419 253.395 49.5419 251.995 48.6419 250.595C47.7419 249.195 46.9419 247.795 46.2419 246.295C45.5419 244.795 44.8419 243.295 44.2419 241.795C43.6419 240.295 43.1419 238.695 42.7419 237.095C42.3419 235.495 41.9419 233.895 41.7419 232.295C41.4419 230.695 41.2419 228.995 41.1419 227.395C41.0419 225.795 41.0419 224.095 41.0419 222.495C41.1419 220.895 41.2419 219.195 41.4419 217.595C41.6419 215.995 41.9419 214.295 42.3419 212.695C42.7419 211.095 43.1419 209.495 43.7419 207.895C44.2419 206.295 44.8419 204.795 45.5419 203.295C46.2419 201.795 46.9419 200.295 47.8419 198.895C48.6419 197.495 49.5419 196.095 50.5419 194.695C51.5419 193.395 52.5419 192.095 53.6419 190.795C54.7419 189.595 55.8419 188.395 57.0419 187.195C58.2419 186.095 59.5419 184.995 60.8419 183.995C62.1419 182.995 63.5419 182.095 64.9419 181.195C66.3419 180.295 67.7419 179.495 69.2419 178.795C70.7419 178.095 72.2419 177.395 73.7419 176.795C75.2419 176.195 76.8419 175.695 78.4419 175.295C80.0419 174.895 81.6419 174.495 83.2419 174.295C84.8419 173.995 86.5419 173.795 88.1419 173.695C89.7419 173.595 91.4419 173.595 93.0419 173.595C94.6419 173.695 96.3419 173.795 97.9419 173.995C99.5419 174.195 101.242 174.495 102.842 174.895C104.442 175.295 106.042 175.695 107.642 176.295C109.242 176.895 110.742 177.395 112.242 178.095C113.742 178.795 115.242 179.595 116.642 180.395Z" stroke="#E5E5E5" stroke-width="6"/>
    <path d="M110.542 172.695C111.942 173.495 113.242 174.395 114.542 175.295C115.842 176.195 117.142 177.195 118.342 178.295C119.542 179.395 120.742 180.495 121.742 181.595C122.842 182.795 123.842 183.995 124.842 185.295C125.842 186.595 126.742 187.895 127.542 189.195C128.342 190.495 129.142 191.995 129.842 193.395C130.542 194.795 131.142 196.295 131.742 197.795C132.342 199.295 132.842 200.795 133.242 202.395C133.642 203.895 134.042 205.495 134.242 207.095C134.442 208.695 134.642 210.295 134.742 211.895C134.842 213.495 134.842 215.095 134.842 216.695C134.742 218.295 134.642 219.895 134.442 221.495C134.242 223.095 133.942 224.695 133.542 226.195C133.142 227.795 132.742 229.295 132.242 230.795C131.742 232.295 131.142 233.795 130.442 235.295C129.742 236.795 129.042 238.195 128.242 239.595C127.442 240.995 126.542 242.295 125.642 243.595C124.742 244.895 123.742 246.195 122.642 247.395C121.542 248.595 120.442 249.795 119.342 250.795C118.142 251.895 116.942 252.895 115.642 253.895C114.342 254.895 113.042 255.795 111.742 256.595C110.442 257.395 108.942 258.195 107.542 258.895C106.142 259.595 104.642 260.195 103.142 260.795C101.642 261.395 100.142 261.895 98.5419 262.295C97.0419 262.695 95.4419 263.095 93.8419 263.295C92.2419 263.495 90.6419 263.695 89.0419 263.795C87.4419 263.895 85.8419 263.895 84.2419 263.895C82.6419 263.795 81.0419 263.695 79.4419 263.495C77.8419 263.295 76.2419 262.995 74.7419 262.595C73.2419 262.195 71.6419 261.795 70.1419 261.295C68.6419 260.795 67.1419 260.195 65.6419 259.495C64.1419 258.795 62.7419 258.095 61.3419 257.295C59.9419 256.495 58.6419 255.595 57.3419 254.695C56.0419 253.795 54.7419 252.795 53.5419 251.695C52.3419 250.595 51.1419 249.495 50.1419 248.395C49.0419 247.195 48.0419 245.995 47.0419 244.695C46.0419 243.395 45.1419 242.095 44.3419 240.795C43.5419 239.495 42.7419 237.995 42.0419 236.595C41.3419 235.195 40.7419 233.695 40.1419 232.195C39.5419 230.695 39.0419 229.195 38.6419 227.595C38.2419 226.095 37.8419 224.495 37.6419 222.895C37.3419 221.295 37.2419 219.695 37.1419 218.095C37.0419 216.495 37.0419 214.895 37.0419 213.295C37.0419 211.695 37.2419 210.095 37.4419 208.495C37.6419 206.895 37.9419 205.295 38.3419 203.795C38.7419 202.195 39.1419 200.695 39.6419 199.195C40.1419 197.695 40.7419 196.195 41.4419 194.695C42.1419 193.195 42.8419 191.795 43.6419 190.395C44.4419 188.995 45.3419 187.695 46.2419 186.395C47.1419 185.095 48.1419 183.795 49.2419 182.595C50.3419 181.395 51.4419 180.195 52.5419 179.195C53.7419 178.095 54.9419 177.095 56.2419 176.095C57.5419 175.095 58.8419 174.195 60.1419 173.395C61.5419 172.595 62.9419 171.795 64.3419 171.095C65.7419 170.395 67.2419 169.795 68.7419 169.195C70.2419 168.595 71.7419 168.095 73.3419 167.695C74.8419 167.295 76.4419 166.895 78.0419 166.695C79.6419 166.395 81.2419 166.295 82.8419 166.195C84.4419 166.095 86.0419 166.095 87.6419 166.095C89.2419 166.095 90.8419 166.295 92.4419 166.495C94.0419 166.695 95.6419 166.995 97.1419 167.395C98.7419 167.795 100.242 168.195 101.742 168.695C103.242 169.195 104.742 169.795 106.242 170.495C107.742 171.195 109.142 171.895 110.542 172.695Z" fill="#E3122D"/>
    <path d="M111.242 171.395C112.642 172.195 114.042 173.095 115.442 174.095C116.742 175.095 118.042 176.095 119.342 177.195C120.642 178.295 121.742 179.395 122.942 180.595C124.042 181.795 125.142 183.095 126.142 184.395C127.142 185.695 128.042 187.095 128.942 188.495C129.842 189.895 130.642 191.295 131.342 192.795C132.042 194.295 132.742 195.795 133.342 197.295C133.942 198.795 134.442 200.395 134.842 201.995C135.242 203.595 135.642 205.195 135.842 206.795C136.142 208.395 136.342 210.095 136.442 211.695C136.542 213.295 136.542 214.995 136.542 216.595C136.442 218.195 136.342 219.895 136.142 221.495C135.942 223.095 135.642 224.795 135.242 226.395C134.842 227.995 134.442 229.595 133.842 231.195C133.342 232.795 132.742 234.295 132.042 235.795C131.342 237.295 130.642 238.795 129.742 240.195C128.942 241.595 128.042 242.995 127.042 244.395C126.042 245.695 125.042 246.995 123.942 248.295C122.842 249.595 121.742 250.695 120.542 251.895C119.342 252.995 118.042 254.095 116.742 255.095C115.442 256.095 114.042 256.995 112.642 257.895C111.242 258.795 109.842 259.595 108.342 260.295C106.842 260.995 105.342 261.695 103.842 262.295C102.342 262.895 100.742 263.395 99.1419 263.795C97.5419 264.195 95.9419 264.595 94.3419 264.795C92.7419 265.095 91.0419 265.295 89.4419 265.395C87.8419 265.495 86.1419 265.495 84.5419 265.495C82.9419 265.495 81.2419 265.295 79.6419 265.095C78.0419 264.895 76.3419 264.595 74.7419 264.195C73.1419 263.795 71.5419 263.395 69.9419 262.795C68.3419 262.295 66.8419 261.695 65.3419 260.995C63.8419 260.295 62.3419 259.595 60.9419 258.695C59.5419 257.895 58.1419 256.995 56.7419 255.995C55.4419 254.995 54.1419 253.995 52.8419 252.895C51.5419 251.795 50.4419 250.695 49.2419 249.495C48.1419 248.295 47.0419 246.995 46.0419 245.695C45.0419 244.395 44.1419 242.995 43.2419 241.595C42.3419 240.195 41.5419 238.795 40.8419 237.295C40.1419 235.795 39.4419 234.295 38.8419 232.795C38.2419 231.295 37.7419 229.695 37.3419 228.095C36.9419 226.495 36.5419 224.895 36.3419 223.295C36.0419 221.695 35.8419 219.995 35.7419 218.395C35.6419 216.795 35.6419 215.095 35.6419 213.495C35.7419 211.895 35.8419 210.195 36.0419 208.595C36.2419 206.995 36.5419 205.295 36.9419 203.695C37.3419 202.095 37.7419 200.495 38.3419 198.895C38.8419 197.295 39.4419 195.795 40.1419 194.295C40.8419 192.795 41.5419 191.295 42.4419 189.895C43.3419 188.495 44.1419 187.095 45.1419 185.695C46.1419 184.395 47.1419 183.095 48.2419 181.795C49.3419 180.595 50.4419 179.395 51.6419 178.195C52.8419 177.095 54.1419 175.995 55.4419 174.995C56.7419 173.995 58.1419 173.095 59.5419 172.195C60.9419 171.295 62.3419 170.495 63.8419 169.795C65.3419 169.095 66.8419 168.395 68.3419 167.795C69.8419 167.195 71.4419 166.695 73.0419 166.295C74.6419 165.895 76.2419 165.495 77.8419 165.295C79.4419 164.995 81.1419 164.795 82.7419 164.695C84.3419 164.595 86.0419 164.595 87.6419 164.595C89.2419 164.695 90.9419 164.795 92.5419 164.995C94.1419 165.195 95.8419 165.495 97.4419 165.895C99.0419 166.295 100.642 166.695 102.242 167.295C103.842 167.895 105.342 168.395 106.842 169.095C108.342 169.895 109.842 170.595 111.242 171.395Z" stroke="#E5E5E5" stroke-width="6"/>
    <path d="M74.2864 224.028L79.8154 214.452L89.2929 219.924L83.7639 229.5L89.2266 232.654L103.268 208.335L97.8049 205.181L92.3139 214.691L82.8364 209.219L88.3274 199.709L82.8976 196.574L68.8566 220.893L74.2864 224.028Z" fill="#EAEAEA"/>
    <path d="M36.3424 102.695C37.7424 101.895 39.1424 101.195 40.6424 100.495C42.1424 99.7951 43.5424 99.2951 45.1424 98.6951C46.7424 98.0951 48.2424 97.6951 49.7424 97.3951C51.3424 96.9951 52.8424 96.7951 54.4424 96.4951C56.0424 96.2951 57.6424 96.1951 59.2424 96.0951C60.8424 95.9951 62.4424 96.0951 64.0424 96.1951C65.6424 96.2951 67.2424 96.4951 68.8424 96.6951C70.4424 96.9951 71.9424 97.2951 73.5424 97.6951C75.1424 98.0951 76.6424 98.5951 78.1424 99.1951C79.6424 99.7951 81.1424 100.395 82.5424 101.095C83.9424 101.795 85.3424 102.595 86.7424 103.395C88.1424 104.195 89.4424 105.195 90.6424 106.095C91.9424 107.095 93.1424 108.095 94.3424 109.195C95.5424 110.295 96.6424 111.395 97.6424 112.595C98.7424 113.795 99.6424 115.095 100.642 116.395C101.542 117.695 102.442 118.995 103.242 120.395C104.042 121.795 104.742 123.195 105.442 124.695C106.142 126.195 106.642 127.595 107.242 129.195C107.842 130.795 108.242 132.295 108.542 133.795C108.842 135.295 109.142 136.895 109.442 138.495C109.642 140.095 109.742 141.695 109.842 143.295C109.942 144.895 109.842 146.495 109.742 148.095C109.642 149.695 109.442 151.295 109.242 152.895C108.942 154.495 108.642 155.995 108.242 157.595C107.842 159.095 107.342 160.695 106.742 162.195C106.142 163.695 105.542 165.195 104.842 166.595C104.142 167.995 103.342 169.395 102.542 170.795C101.742 172.195 100.742 173.495 99.8424 174.695C98.9424 175.895 97.8424 177.195 96.7424 178.395C95.6424 179.595 94.5424 180.695 93.3424 181.695C92.1424 182.795 90.8424 183.695 89.5424 184.695C88.2424 185.595 86.9424 186.495 85.5424 187.295C84.1424 188.095 82.7424 188.795 81.2424 189.495C79.7424 190.195 78.3424 190.695 76.7424 191.295C75.2424 191.795 73.6424 192.295 72.1424 192.595C70.5424 192.995 69.0424 193.195 67.4424 193.495C65.8424 193.795 64.2424 193.795 62.6424 193.895C61.0424 193.995 59.4424 193.895 57.8424 193.795C56.2424 193.695 54.6424 193.495 53.0424 193.295C51.4424 193.095 49.9424 192.695 48.3424 192.295C46.8424 191.895 45.2424 191.395 43.7424 190.795C42.2424 190.195 40.7424 189.595 39.3424 188.895C37.9424 188.195 36.5424 187.395 35.1424 186.595C33.7424 185.795 32.4424 184.795 31.2424 183.895C29.9424 182.895 28.7424 181.895 27.5424 180.795C26.3424 179.695 25.2424 178.595 24.2424 177.395C23.1424 176.195 22.2424 174.895 21.2424 173.595C20.3424 172.295 19.4424 170.995 18.6424 169.595C17.8424 168.195 17.1424 166.795 16.4424 165.295C15.7424 163.795 15.2424 162.395 14.6424 160.795C14.1424 159.295 13.6424 157.695 13.3424 156.195C12.9424 154.595 12.7424 153.095 12.4424 151.495C12.2424 149.895 12.1424 148.295 12.0424 146.695C11.9424 145.095 12.0424 143.495 12.1424 141.895C12.2424 140.295 12.4424 138.695 12.6424 137.095C12.9424 135.495 13.2424 133.995 13.6424 132.395C14.0424 130.895 14.5424 129.295 15.1424 127.795C15.7424 126.295 16.3424 124.795 17.0424 123.395C17.7424 121.995 18.5424 120.595 19.3424 119.195C20.1424 117.795 21.1424 116.495 22.0424 115.295C23.0424 113.995 24.0424 112.795 25.1424 111.595C26.2424 110.395 27.3424 109.295 28.5424 108.295C29.7424 107.195 31.0424 106.295 32.3424 105.295C33.6424 104.295 35.0424 103.495 36.3424 102.695Z" fill="#131E2B"/>
    <path d="M35.6419 101.395C37.0419 100.595 38.5419 99.7954 40.0419 99.0954C41.5419 98.3954 43.0419 97.7954 44.6419 97.2954C46.2419 96.7954 47.7419 96.2954 49.4419 95.8954C51.0419 95.4954 52.6419 95.1954 54.3419 94.9954C55.9419 94.7954 57.6419 94.5954 59.2419 94.5954C60.8419 94.4954 62.5419 94.5954 64.1419 94.6954C65.7419 94.7954 67.4419 94.9954 69.0419 95.2954C70.6419 95.5954 72.2419 95.8954 73.8419 96.2954C75.4419 96.6954 77.0419 97.1954 78.5419 97.7954C80.0419 98.3954 81.6419 98.9954 83.0419 99.7954C84.4419 100.595 85.9419 101.295 87.3419 102.195C88.7419 103.095 90.1419 103.995 91.4419 104.995C92.7419 105.995 94.0419 107.095 95.2419 108.195C96.4419 109.295 97.6419 110.495 98.6419 111.795C99.6419 113.095 100.742 114.295 101.742 115.695C102.742 117.095 103.642 118.395 104.442 119.895C105.242 121.295 106.042 122.795 106.742 124.295C107.442 125.795 108.042 127.295 108.542 128.895C109.042 130.495 109.542 131.995 109.942 133.695C110.342 135.295 110.642 136.895 110.842 138.595C111.042 140.195 111.242 141.895 111.242 143.495C111.342 145.095 111.242 146.795 111.142 148.395C111.042 149.995 110.842 151.695 110.542 153.295C110.242 154.895 109.942 156.495 109.542 158.095C109.142 159.695 108.642 161.295 108.042 162.795C107.442 164.295 106.842 165.895 106.042 167.295C105.342 168.795 104.542 170.195 103.642 171.595C102.742 172.995 101.842 174.395 100.842 175.695C99.8419 176.995 98.7419 178.295 97.6419 179.495C96.5419 180.695 95.3419 181.895 94.0419 182.895C92.8419 183.995 91.5419 184.995 90.1419 185.995C88.8419 186.995 87.4419 187.895 85.9419 188.695C84.4419 189.495 83.0419 190.295 81.5419 190.995C80.0419 191.695 78.5419 192.295 76.9419 192.795C75.3419 193.295 73.8419 193.795 72.1419 194.195C70.4419 194.595 68.9419 194.895 67.2419 195.095C65.6419 195.295 63.9419 195.495 62.3419 195.495C60.7419 195.595 59.0419 195.495 57.4419 195.395C55.8419 195.295 54.1419 195.095 52.5419 194.795C50.9419 194.495 49.3419 194.195 47.7419 193.795C46.1419 193.395 44.5419 192.895 43.0419 192.295C41.5419 191.695 39.9419 191.095 38.5419 190.295C37.0419 189.595 35.6419 188.795 34.2419 187.895C32.8419 186.995 31.4419 186.095 30.1419 185.095C28.8419 184.095 27.5419 182.995 26.3419 181.895C25.1419 180.795 23.9419 179.595 22.9419 178.295C21.9419 176.995 20.8419 175.795 19.8419 174.395C18.8419 173.095 17.9419 171.695 17.1419 170.195C16.3419 168.695 15.5419 167.295 14.8419 165.795C14.1419 164.295 13.5419 162.795 13.0419 161.195C12.5419 159.595 12.0419 158.095 11.6419 156.395C11.2419 154.795 10.9419 153.195 10.7419 151.495C10.5419 149.895 10.3419 148.195 10.3419 146.595C10.2419 144.995 10.3419 143.295 10.4419 141.695C10.5419 140.095 10.7419 138.395 11.0419 136.795C11.3419 135.195 11.6419 133.595 12.0419 131.995C12.4419 130.395 12.9419 128.795 13.5419 127.295C14.1419 125.795 14.7419 124.195 15.5419 122.795C16.2419 121.295 17.0419 119.895 17.9419 118.495C18.8419 117.095 19.7419 115.695 20.7419 114.395C21.7419 113.095 22.8419 111.795 23.9419 110.595C25.0419 109.395 26.2419 108.195 27.5419 107.195C28.7419 106.095 30.0419 105.095 31.4419 104.095C32.8419 103.095 34.2419 102.295 35.6419 101.395Z" stroke="#E3122D" stroke-width="6"/>
    <path d="M74.8417 187.496C69.1417 190.796 62.9417 192.896 56.4417 193.696C50.1417 194.496 43.8417 193.996 37.7417 192.396C31.6417 190.796 25.9417 187.996 20.9417 184.196C15.7417 180.296 11.4417 175.396 8.14169 169.596C4.84169 163.896 2.74168 157.696 1.94168 151.196C1.14168 144.896 1.64168 138.596 3.24168 132.496C4.84168 126.396 7.64168 120.696 11.4417 115.696C15.3417 110.496 20.2417 106.196 26.0417 102.896C31.7417 99.5956 37.9417 97.4956 44.4417 96.6956C50.7417 95.8956 57.0417 96.3956 63.1417 97.9956C69.2417 99.5956 74.9417 102.396 79.9417 106.196C85.1417 110.096 89.4417 114.996 92.7417 120.796C96.0417 126.496 98.1417 132.696 98.9417 139.196C99.7417 145.496 99.2417 151.796 97.6417 157.896C96.0417 163.996 93.2417 169.696 89.4417 174.696C85.4417 179.896 80.5417 184.296 74.8417 187.496Z" fill="#131E2B"/>
    <path d="M25.1419 101.595C49.2419 87.6954 80.0419 95.8954 93.9419 119.995C107.842 144.095 99.6419 174.895 75.5419 188.795C51.4419 202.695 20.6419 194.495 6.74192 170.395C-7.15808 146.295 1.14193 115.495 25.1419 101.595ZM26.6419 104.195C21.1419 107.395 16.3419 111.595 12.5419 116.595C8.84192 121.495 6.14192 126.995 4.54192 132.895C2.94192 138.795 2.54192 144.895 3.24192 150.995C4.04192 157.295 6.04192 163.295 9.24192 168.795C12.4419 174.295 16.6419 179.095 21.6419 182.895C26.5419 186.595 32.0419 189.295 37.9419 190.895C43.8419 192.495 49.9419 192.895 56.0419 192.195C62.3419 191.395 68.3419 189.395 73.8419 186.195C79.3419 182.995 84.1419 178.795 87.9419 173.795C91.6419 168.895 94.3419 163.395 95.9419 157.495C97.5419 151.595 97.9419 145.495 97.2419 139.395C96.4419 133.095 94.4419 127.095 91.2419 121.595C88.0419 116.095 83.8419 111.295 78.8419 107.495C73.9419 103.795 68.4419 101.095 62.5419 99.4954C56.6419 97.8954 50.5419 97.4954 44.4419 98.1954C38.2419 98.9954 32.2419 100.995 26.6419 104.195Z" fill="#E3122D"/>
    <path d="M58.6783 162.207L64.141 159.053L53.121 139.967L59.9659 136.015L56.9449 130.782L37.7595 141.859L40.7805 147.092L47.6583 143.121L58.6783 162.207Z" fill="white"/>
    <path d="M130.442 34.8954C131.242 36.2954 132.042 37.6954 132.742 39.0954C133.442 40.4954 134.142 41.9954 134.642 43.4954C135.142 44.9954 135.742 46.4954 136.142 48.0954C136.542 49.6954 136.942 51.1954 137.142 52.7954C137.342 54.3954 137.642 55.9954 137.742 57.5954C137.842 59.1954 137.842 60.7954 137.842 62.3954C137.842 63.9954 137.642 65.5954 137.442 67.1954C137.242 68.7954 136.942 70.3954 136.642 71.8954C136.242 73.4954 135.842 74.9954 135.342 76.4954C134.842 77.9954 134.242 79.4954 133.542 80.9954C132.842 82.4954 132.142 83.8954 131.342 85.2954C130.542 86.6954 129.642 87.9954 128.742 89.2954C127.842 90.5954 126.842 91.8954 125.742 93.0954C124.642 94.2954 123.542 95.4954 122.442 96.5954C121.242 97.6954 120.042 98.6954 118.742 99.6954C117.442 100.695 116.142 101.595 114.842 102.395C113.442 103.195 112.042 103.995 110.642 104.695C109.242 105.395 107.742 106.095 106.242 106.595C104.742 107.095 103.242 107.695 101.642 108.095C100.142 108.495 98.5419 108.895 96.9419 109.095C95.3419 109.395 93.7419 109.595 92.1419 109.695C90.5419 109.795 88.9419 109.795 87.3419 109.795C85.7419 109.795 84.1419 109.595 82.5419 109.395C80.9419 109.195 79.3419 108.895 77.8419 108.595C76.2419 108.195 74.7419 107.795 73.2419 107.295C71.7419 106.795 70.2419 106.195 68.7419 105.495C67.2419 104.795 65.8419 104.095 64.4419 103.295C63.0419 102.495 61.7419 101.595 60.4419 100.695C59.1419 99.7954 57.8419 98.7954 56.6419 97.6954C55.4419 96.5954 54.2419 95.4954 53.1419 94.3954C52.0419 93.2954 51.0419 91.9954 50.0419 90.6954C49.0419 89.3954 48.1419 88.0954 47.3419 86.7954C46.5419 85.4954 45.7419 83.9954 45.0419 82.5954C44.3419 81.1954 43.6419 79.6954 43.1419 78.1954C42.5419 76.6954 42.0419 75.1954 41.6419 73.5954C41.2419 72.0954 40.8419 70.4954 40.6419 68.8954C40.4419 67.2954 40.1419 65.6954 40.0419 64.0954C39.9419 62.4954 39.9419 60.8954 39.9419 59.2954C39.9419 57.6954 40.1419 56.0954 40.3419 54.4954C40.5419 52.8954 40.8419 51.2954 41.1419 49.7954C41.4419 48.2954 41.9419 46.6954 42.4419 45.1954C42.9419 43.6954 43.5419 42.1954 44.2419 40.6954C44.9419 39.1954 45.6419 37.7954 46.4419 36.3954C47.2419 34.9954 48.1419 33.6954 49.0419 32.3954C49.9419 31.0954 50.9419 29.7954 52.0419 28.5954C53.1419 27.3954 54.2419 26.1954 55.3419 25.0954C56.5419 23.9954 57.7419 22.9954 59.0419 21.9954C60.3419 20.9954 61.6419 20.0954 62.9419 19.2954C64.3419 18.4954 65.7419 17.6954 67.1419 16.9954C68.5419 16.2954 70.0419 15.5954 71.5419 15.0954C73.0419 14.4954 74.5419 13.9954 76.1419 13.5954C77.6419 13.1954 79.2419 12.7954 80.8419 12.5954C82.4419 12.2954 84.0419 12.0954 85.6419 11.9954C87.2419 11.8954 88.8419 11.8954 90.4419 11.8954C92.0419 11.8954 93.6419 12.0954 95.2419 12.2954C96.8419 12.4954 98.4419 12.7954 99.9419 13.0954C101.442 13.3954 103.042 13.8954 104.542 14.3954C106.042 14.8954 107.542 15.4954 109.042 16.1954C110.542 16.8954 111.942 17.5954 113.342 18.3954C114.742 19.1954 116.042 20.0954 117.342 20.9954C118.642 21.8954 119.942 22.8954 121.142 23.9954C122.342 25.0954 123.542 26.1954 124.642 27.2954C125.742 28.4954 126.742 29.6954 127.742 30.9954C128.742 32.1954 129.642 33.4954 130.442 34.8954Z" fill="#E3122D"/>
    <path d="M131.742 34.0954C132.642 35.4954 133.442 36.8954 134.142 38.3954C134.842 39.8954 135.542 41.3954 136.142 42.8954C136.742 44.3954 137.242 45.9954 137.642 47.5954C138.042 49.1954 138.442 50.7954 138.742 52.3954C139.042 53.9954 139.242 55.6954 139.342 57.2954C139.442 58.8954 139.442 60.5954 139.442 62.1954C139.442 63.7954 139.242 65.4954 139.042 67.0954C138.842 68.6954 138.542 70.3954 138.142 71.9954C137.742 73.5954 137.342 75.1954 136.842 76.7954C136.342 78.3954 135.742 79.8954 135.042 81.3954C134.342 82.8954 133.642 84.3954 132.842 85.7954C132.042 87.1954 131.142 88.5954 130.142 89.9954C129.142 91.2954 128.142 92.5954 127.042 93.8954C125.942 95.0954 124.842 96.2954 123.642 97.4954C122.442 98.5954 121.142 99.6954 119.842 100.695C118.542 101.695 117.142 102.595 115.742 103.495C114.342 104.395 112.942 105.195 111.442 105.895C109.942 106.595 108.442 107.295 106.942 107.895C105.442 108.495 103.842 108.995 102.242 109.395C100.642 109.795 99.0419 110.195 97.4419 110.495C95.8419 110.795 94.1419 110.995 92.5419 111.095C90.9419 111.195 89.2419 111.195 87.6419 111.195C86.0419 111.095 84.3419 110.995 82.7419 110.795C81.1419 110.595 79.4419 110.295 77.8419 109.895C76.2419 109.495 74.6419 109.095 73.0419 108.595C71.4419 108.095 69.9419 107.495 68.4419 106.795C66.9419 106.095 65.4419 105.395 64.0419 104.595C62.6419 103.795 61.2419 102.895 59.8419 101.895C58.5419 100.895 57.2419 99.8954 55.9419 98.7954C54.7419 97.6954 53.5419 96.5954 52.3419 95.3954C51.1419 94.1954 50.1419 92.8954 49.1419 91.5954C48.1419 90.2954 47.2419 88.8954 46.3419 87.4954C45.4419 86.0954 44.6419 84.6954 43.9419 83.1954C43.2419 81.6954 42.5419 80.1954 41.9419 78.6954C41.3419 77.1954 40.8419 75.5954 40.4419 73.9954C40.0419 72.3954 39.6419 70.7954 39.3419 69.1954C39.0419 67.5954 38.8419 65.8954 38.7419 64.2954C38.6419 62.6954 38.6419 60.9954 38.6419 59.3954C38.7419 57.7954 38.8419 56.0954 39.0419 54.4954C39.2419 52.8954 39.5419 51.1954 39.9419 49.5954C40.3419 47.9954 40.7419 46.3954 41.2419 44.7954C41.7419 43.1954 42.3419 41.6954 43.0419 40.1954C43.7419 38.6954 44.4419 37.1954 45.2419 35.7954C46.0419 34.3954 46.9419 32.9954 47.9419 31.5954C48.9419 30.2954 49.9419 28.9954 51.0419 27.6954C52.1419 26.4954 53.2419 25.2954 54.4419 24.0954C55.6419 22.9954 56.9419 21.8954 58.2419 20.8954C59.5419 19.8954 60.9419 18.9954 62.3419 18.0954C63.7419 17.1954 65.1419 16.3954 66.6419 15.6954C68.1419 14.9954 69.6419 14.2954 71.1419 13.6954C72.6419 13.0954 74.2419 12.5954 75.8419 12.1954C77.4419 11.7954 79.0419 11.3954 80.6419 11.0954C82.2419 10.7954 83.9419 10.5954 85.5419 10.4954C87.1419 10.3954 88.8419 10.3954 90.4419 10.3954C92.0419 10.4954 93.7419 10.5954 95.3419 10.7954C96.9419 10.9954 98.6419 11.2954 100.242 11.6954C101.842 12.0954 103.442 12.4954 105.042 12.9954C106.642 13.4954 108.142 14.0954 109.642 14.7954C111.142 15.4954 112.642 16.1954 114.042 16.9954C115.442 17.7954 116.842 18.6954 118.242 19.6954C119.542 20.6954 120.842 21.6954 122.142 22.7954C123.342 23.8954 124.542 24.9954 125.742 26.1954C126.842 27.3954 127.942 28.6954 128.942 29.9954C129.942 31.3954 130.842 32.6954 131.742 34.0954Z" stroke="white" stroke-width="6"/>
    <path d="M47.0419 76.2954C43.5419 70.6954 41.2419 64.5954 40.2419 58.0954C39.2419 51.8954 39.4419 45.5954 40.9419 39.3954C42.3419 33.1954 44.9419 27.4954 48.5419 22.2954C52.3419 16.8954 57.0419 12.4954 62.6419 8.99537C68.2419 5.49537 74.3419 3.19538 80.8419 2.19538C87.0419 1.19538 93.3419 1.39536 99.5419 2.89536C105.742 4.29536 111.442 6.89537 116.642 10.4954C122.042 14.2954 126.442 18.9954 129.942 24.5954C133.442 30.1954 135.742 36.2954 136.742 42.7954C137.742 48.9954 137.542 55.2954 136.042 61.4954C134.642 67.6954 132.042 73.3954 128.442 78.5954C124.642 83.9954 119.942 88.3954 114.342 91.8954C108.742 95.3954 102.642 97.6954 96.1419 98.6954C89.9419 99.6954 83.6419 99.4954 77.4419 97.9954C71.2419 96.5954 65.5419 93.9954 60.3419 90.3954C55.0419 86.5954 50.5419 81.8954 47.0419 76.2954Z" fill="#E3122D"/>
    <path d="M131.242 23.6954C145.942 47.2954 138.842 78.3954 115.242 93.0954C91.6419 107.795 60.5419 100.695 45.8419 77.0954C31.1419 53.4954 38.2419 22.3954 61.8419 7.69538C85.3419 -7.10462 116.442 0.095377 131.242 23.6954ZM128.642 25.2954C125.242 19.8954 120.942 15.2954 115.742 11.5954C110.742 8.09537 105.142 5.59538 99.1419 4.19538C93.1419 2.79538 87.0419 2.59537 80.9419 3.59537C74.6419 4.59537 68.7419 6.79538 63.3419 10.1954C57.9419 13.5954 53.3419 17.8954 49.6419 23.0954C46.1419 28.0954 43.6419 33.6954 42.2419 39.6954C40.8419 45.6954 40.6419 51.7954 41.6419 57.8954C42.6419 64.1954 44.8419 70.0954 48.2419 75.4954C51.6419 80.8954 55.9419 85.4954 61.1419 89.1954C66.1419 92.6954 71.7419 95.1954 77.7419 96.5954C83.7419 97.9954 89.8419 98.1954 95.9419 97.1954C102.242 96.1954 108.142 93.9954 113.542 90.5954C118.942 87.1954 123.542 82.8954 127.242 77.6954C130.742 72.6954 133.242 67.0954 134.642 61.0954C136.042 55.0954 136.242 48.9954 135.242 42.8954C134.242 36.5954 132.042 30.6954 128.642 25.2954Z" fill="white"/>
    <path d="M71.9981 54.2369L81.3753 48.3773L87.1745 57.6578L77.7973 63.5174L81.14 68.8666L104.953 53.9859L101.611 48.6368L92.2981 54.4561L86.4989 45.1756L95.8117 39.3562L92.4892 34.0393L68.6756 48.9199L71.9981 54.2369Z" fill="#EAEAEA"/>
</svg>
