<svg width="145" height="278" viewBox="0 0 145 278" fill="none" xmlns="http://www.w3.org/2000/svg">
    <path d="M115.908 181.695C117.308 182.495 118.608 183.395 119.908 184.295C121.208 185.195 122.508 186.195 123.708 187.295C124.908 188.395 126.108 189.495 127.108 190.595C128.208 191.795 129.208 192.995 130.208 194.295C131.208 195.595 132.108 196.895 132.908 198.195C133.708 199.495 134.508 200.995 135.208 202.395C135.908 203.795 136.508 205.295 137.108 206.795C137.708 208.295 138.208 209.795 138.608 211.395C139.008 212.995 139.408 214.495 139.608 216.095C139.808 217.695 140.008 219.295 140.108 220.895C140.208 222.495 140.208 224.095 140.208 225.695C140.108 227.295 140.008 228.895 139.808 230.495C139.608 232.095 139.308 233.695 138.908 235.195C138.508 236.795 138.108 238.295 137.608 239.795C137.108 241.295 136.508 242.795 135.808 244.295C135.108 245.795 134.408 247.195 133.608 248.595C132.808 249.995 131.908 251.295 131.008 252.595C130.108 253.895 129.108 255.195 128.008 256.395C126.908 257.595 125.808 258.795 124.708 259.795C123.508 260.895 122.308 261.895 121.008 262.895C119.708 263.895 118.408 264.795 117.108 265.595C115.708 266.395 114.308 267.195 112.908 267.895C111.508 268.595 110.008 269.195 108.508 269.795C107.008 270.395 105.508 270.895 103.908 271.295C102.408 271.695 100.808 272.095 99.2082 272.295C97.6082 272.595 96.0082 272.695 94.4082 272.795C92.8082 272.895 91.2082 272.895 89.6082 272.895C88.0082 272.795 86.4082 272.695 84.8082 272.495C83.2082 272.295 81.6082 271.995 80.1082 271.595C78.5082 271.195 77.0082 270.795 75.5082 270.295C74.0082 269.795 72.5082 269.195 71.0082 268.495C69.5082 267.795 68.1082 267.095 66.7082 266.295C65.3082 265.495 64.0082 264.595 62.7082 263.695C61.4082 262.795 60.1082 261.795 58.9082 260.695C57.7082 259.595 56.5082 258.495 55.5082 257.395C54.4082 256.195 53.4082 254.995 52.4082 253.695C51.4082 252.395 50.5082 251.095 49.7082 249.795C48.9082 248.395 48.1082 246.995 47.4082 245.595C46.7082 244.195 46.1082 242.695 45.5082 241.195C44.9082 239.695 44.4082 238.195 44.0082 236.595C43.6082 235.095 43.2082 233.495 43.0082 231.895C42.8082 230.295 42.6082 228.695 42.5082 227.095C42.4082 225.495 42.4082 223.895 42.4082 222.295C42.4082 220.695 42.6082 219.095 42.8082 217.495C43.0082 215.895 43.3082 214.295 43.7082 212.795C44.1082 211.195 44.5082 209.695 45.0082 208.195C45.5082 206.695 46.1082 205.195 46.8082 203.695C47.5082 202.195 48.2082 200.795 49.0082 199.395C49.8082 197.995 50.7082 196.695 51.6082 195.395C52.5082 194.095 53.5082 192.795 54.6082 191.595C55.7082 190.395 56.8082 189.195 57.9082 188.195C59.1082 187.095 60.3082 186.095 61.6082 185.095C62.9082 184.095 64.2082 183.195 65.5082 182.395C66.9082 181.595 68.3082 180.795 69.7082 180.095C71.1082 179.395 72.6082 178.795 74.1082 178.195C75.6082 177.595 77.1082 177.095 78.7082 176.695C80.2082 176.295 81.8082 175.895 83.4082 175.695C85.0082 175.395 86.6082 175.295 88.2082 175.195C89.8082 175.095 91.4082 175.095 93.0082 175.095C94.6082 175.195 96.2082 175.295 97.8082 175.495C99.4082 175.695 101.008 175.995 102.508 176.395C104.108 176.795 105.608 177.195 107.108 177.695C108.608 178.195 110.108 178.795 111.608 179.495C113.108 180.195 114.508 180.895 115.908 181.695Z" fill="#E5DFDF"/>
    <path d="M116.608 180.395C118.008 181.195 119.408 182.095 120.808 183.095C122.108 184.095 123.408 185.095 124.708 186.195C125.908 187.295 127.108 188.395 128.308 189.595C129.508 190.795 130.508 192.095 131.508 193.395C132.508 194.695 133.408 196.095 134.308 197.495C135.208 198.895 136.008 200.295 136.708 201.795C137.408 203.295 138.108 204.795 138.708 206.295C139.308 207.795 139.808 209.395 140.208 210.995C140.608 212.595 141.008 214.195 141.208 215.795C141.508 217.395 141.708 219.095 141.808 220.695C141.908 222.295 141.908 223.995 141.908 225.595C141.908 227.195 141.708 228.895 141.508 230.495C141.308 232.095 141.008 233.795 140.608 235.395C140.208 236.995 139.808 238.595 139.208 240.195C138.708 241.795 138.108 243.295 137.408 244.795C136.708 246.295 136.008 247.795 135.108 249.195C134.308 250.595 133.408 251.995 132.408 253.395C131.408 254.695 130.408 255.995 129.308 257.295C128.208 258.595 127.108 259.695 125.908 260.895C124.708 261.995 123.408 263.095 122.108 264.095C120.808 265.095 119.408 265.995 118.008 266.895C116.608 267.795 115.208 268.595 113.708 269.295C112.208 269.995 110.708 270.695 109.208 271.295C107.708 271.895 106.108 272.395 104.508 272.795C102.908 273.195 101.308 273.595 99.7082 273.795C98.1082 274.095 96.4082 274.295 94.8082 274.395C93.2082 274.495 91.5082 274.495 89.9082 274.495C88.3082 274.495 86.6082 274.295 85.0082 274.095C83.4082 273.895 81.7082 273.595 80.1082 273.195C78.5082 272.795 76.9082 272.395 75.3082 271.795C73.7082 271.295 72.2082 270.695 70.7082 269.995C69.2082 269.295 67.7082 268.595 66.3082 267.695C64.9082 266.895 63.5082 265.995 62.1082 264.995C60.7082 263.995 59.5082 262.995 58.2082 261.895C57.0082 260.795 55.8082 259.695 54.6082 258.495C53.5082 257.295 52.4082 255.995 51.4082 254.695C50.4082 253.395 49.5082 251.995 48.6082 250.595C47.7082 249.195 46.9082 247.795 46.2082 246.295C45.5082 244.795 44.8082 243.295 44.2082 241.795C43.6082 240.295 43.1082 238.695 42.7082 237.095C42.3082 235.495 41.9082 233.895 41.7082 232.295C41.4082 230.695 41.2082 228.995 41.1082 227.395C41.0082 225.795 41.0082 224.095 41.0082 222.495C41.1082 220.895 41.2082 219.195 41.4082 217.595C41.6082 215.995 41.9082 214.295 42.3082 212.695C42.7082 211.095 43.1082 209.495 43.7082 207.895C44.3082 206.295 44.8082 204.795 45.5082 203.295C46.2082 201.795 46.9082 200.295 47.8082 198.895C48.6082 197.495 49.5082 196.095 50.5082 194.695C51.5082 193.395 52.5082 192.095 53.6082 190.795C54.7082 189.595 55.8082 188.395 57.0082 187.195C58.2082 186.095 59.5082 184.995 60.8082 183.995C62.1082 182.995 63.5082 182.095 64.9082 181.195C66.3082 180.295 67.7082 179.495 69.2082 178.795C70.7082 178.095 72.2082 177.395 73.7082 176.795C75.2082 176.195 76.8082 175.695 78.4082 175.295C80.0082 174.895 81.6082 174.495 83.2082 174.295C84.8082 173.995 86.5082 173.795 88.1082 173.695C89.7082 173.595 91.4082 173.595 93.0082 173.595C94.6082 173.595 96.3082 173.795 97.9082 173.995C99.5082 174.195 101.208 174.495 102.808 174.895C104.408 175.295 106.008 175.695 107.608 176.295C109.208 176.895 110.708 177.395 112.208 178.095C113.708 178.795 115.208 179.595 116.608 180.395Z" stroke="#E3122D" stroke-width="6"/>
    <path d="M110.508 172.695C111.908 173.495 113.208 174.395 114.508 175.295C115.808 176.195 117.108 177.195 118.308 178.295C119.508 179.395 120.708 180.495 121.708 181.595C122.808 182.795 123.808 183.995 124.808 185.295C125.808 186.595 126.708 187.895 127.508 189.195C128.308 190.495 129.108 191.995 129.808 193.395C130.508 194.795 131.108 196.295 131.708 197.795C132.308 199.295 132.808 200.795 133.208 202.395C133.608 203.995 134.008 205.495 134.208 207.095C134.408 208.695 134.608 210.295 134.708 211.895C134.808 213.495 134.808 215.095 134.808 216.695C134.708 218.295 134.608 219.895 134.408 221.495C134.208 223.095 133.908 224.695 133.508 226.195C133.108 227.795 132.708 229.295 132.208 230.795C131.708 232.295 131.108 233.795 130.408 235.295C129.708 236.795 129.008 238.195 128.208 239.595C127.408 240.995 126.508 242.295 125.608 243.595C124.708 244.895 123.708 246.195 122.608 247.395C121.508 248.595 120.408 249.795 119.308 250.795C118.108 251.895 116.908 252.895 115.608 253.895C114.308 254.895 113.008 255.795 111.708 256.595C110.308 257.395 108.908 258.195 107.508 258.895C106.108 259.595 104.608 260.195 103.108 260.795C101.608 261.395 100.108 261.895 98.5082 262.295C97.0082 262.695 95.4082 263.095 93.8082 263.295C92.2082 263.595 90.6082 263.695 89.0082 263.795C87.4082 263.895 85.8082 263.895 84.2082 263.895C82.6082 263.795 81.0082 263.695 79.4082 263.495C77.8082 263.295 76.2082 262.995 74.7082 262.595C73.1082 262.195 71.6082 261.795 70.1082 261.295C68.6082 260.795 67.1082 260.195 65.6082 259.495C64.1082 258.795 62.7082 258.095 61.3082 257.295C59.9082 256.495 58.6082 255.595 57.3082 254.695C56.0082 253.795 54.7082 252.795 53.5082 251.695C52.3082 250.595 51.1082 249.495 50.1082 248.395C49.0082 247.195 48.0082 245.995 47.0082 244.695C46.0082 243.395 45.1082 242.095 44.3082 240.795C43.5082 239.395 42.7082 237.995 42.0082 236.595C41.3082 235.195 40.7082 233.695 40.1082 232.195C39.5082 230.695 39.0082 229.195 38.6082 227.595C38.2082 226.095 37.8082 224.495 37.6082 222.895C37.4082 221.295 37.2082 219.695 37.1082 218.095C37.0082 216.495 37.0082 214.895 37.0082 213.295C37.0082 211.695 37.2082 210.095 37.4082 208.495C37.6082 206.895 37.9082 205.295 38.3082 203.795C38.7082 202.195 39.1082 200.695 39.6082 199.195C40.1082 197.695 40.7082 196.195 41.4082 194.695C42.1082 193.195 42.8082 191.795 43.6082 190.395C44.4082 188.995 45.3082 187.695 46.2082 186.395C47.1082 185.095 48.1082 183.795 49.2082 182.595C50.3082 181.395 51.4082 180.195 52.5082 179.195C53.7082 178.095 54.9082 177.095 56.2082 176.095C57.5082 175.095 58.8082 174.195 60.1082 173.395C61.5082 172.595 62.9082 171.795 64.3082 171.095C65.7082 170.395 67.2082 169.795 68.7082 169.195C70.2082 168.595 71.7082 168.095 73.3082 167.695C74.8082 167.295 76.4082 166.895 78.0082 166.695C79.6082 166.395 81.2082 166.295 82.8082 166.195C84.4082 166.095 86.0082 166.095 87.6082 166.095C89.2082 166.195 90.8082 166.295 92.4082 166.495C94.0082 166.695 95.6082 166.995 97.1082 167.395C98.7082 167.795 100.208 168.195 101.708 168.695C103.208 169.195 104.708 169.795 106.208 170.495C107.708 171.195 109.108 171.895 110.508 172.695Z" fill="#E5DFDF"/>
    <path d="M111.308 171.395C112.708 172.195 114.108 173.095 115.508 174.095C116.808 175.095 118.108 176.095 119.408 177.195C120.608 178.295 121.808 179.395 123.008 180.595C124.208 181.795 125.208 183.095 126.208 184.395C127.208 185.695 128.108 187.095 129.008 188.495C129.908 189.895 130.708 191.295 131.408 192.795C132.108 194.295 132.808 195.795 133.408 197.295C134.008 198.795 134.508 200.395 134.908 201.995C135.308 203.595 135.708 205.195 135.908 206.795C136.208 208.395 136.408 210.095 136.508 211.695C136.608 213.295 136.608 214.995 136.608 216.595C136.608 218.195 136.408 219.895 136.208 221.495C136.008 223.095 135.708 224.795 135.308 226.395C134.908 227.995 134.508 229.595 133.908 231.195C133.408 232.795 132.808 234.295 132.108 235.795C131.408 237.295 130.708 238.795 129.808 240.195C129.008 241.595 128.108 242.995 127.108 244.395C126.108 245.695 125.108 246.995 124.008 248.295C122.908 249.595 121.808 250.695 120.608 251.895C119.408 252.995 118.108 254.095 116.808 255.095C115.508 256.095 114.108 256.995 112.708 257.895C111.308 258.795 109.908 259.595 108.408 260.295C106.908 260.995 105.408 261.695 103.908 262.295C102.408 262.895 100.808 263.395 99.2082 263.795C97.6082 264.195 96.0082 264.595 94.4082 264.795C92.8082 265.095 91.1082 265.295 89.5082 265.395C87.9082 265.495 86.2082 265.495 84.6082 265.495C83.0082 265.495 81.3082 265.295 79.7082 265.095C78.1082 264.895 76.4082 264.595 74.8082 264.195C73.2082 263.795 71.6082 263.395 70.0082 262.795C68.4082 262.295 66.9082 261.695 65.4082 260.995C63.9082 260.295 62.4082 259.595 61.0082 258.695C59.6082 257.895 58.2082 256.995 56.8082 255.995C55.4082 254.995 54.2082 253.995 52.9082 252.895C51.7082 251.795 50.5082 250.695 49.3082 249.495C48.2082 248.295 47.1082 246.995 46.1082 245.695C45.1082 244.395 44.2082 242.995 43.3082 241.595C42.4082 240.195 41.6082 238.795 40.9082 237.295C40.2082 235.795 39.5082 234.295 38.9082 232.795C38.3082 231.295 37.8082 229.695 37.4082 228.095C37.0082 226.495 36.6082 224.895 36.4082 223.295C36.1082 221.695 35.9082 219.995 35.8082 218.395C35.7082 216.795 35.7082 215.095 35.7082 213.495C35.8082 211.895 35.9082 210.195 36.1082 208.595C36.3082 206.995 36.6082 205.295 37.0082 203.695C37.4082 202.095 37.8082 200.495 38.4082 198.895C39.0082 197.295 39.5082 195.795 40.2082 194.295C40.9082 192.795 41.6082 191.295 42.5082 189.895C43.3082 188.495 44.2082 187.095 45.2082 185.695C46.2082 184.395 47.2082 183.095 48.3082 181.795C49.4082 180.595 50.5082 179.395 51.7082 178.195C52.9082 177.095 54.2082 175.995 55.5082 174.995C56.8082 173.995 58.2082 173.095 59.6082 172.195C61.0082 171.295 62.4082 170.495 63.9082 169.795C65.4082 169.095 66.9082 168.395 68.4082 167.795C69.9082 167.195 71.5082 166.695 73.1082 166.295C74.7082 165.895 76.3082 165.495 77.9082 165.295C79.5082 164.995 81.2082 164.795 82.8082 164.695C84.4082 164.595 86.1082 164.595 87.7082 164.595C89.3082 164.595 91.0082 164.795 92.6082 164.995C94.2082 165.195 95.9082 165.495 97.5082 165.895C99.1082 166.295 100.708 166.695 102.308 167.295C103.908 167.895 105.408 168.395 106.908 169.095C108.408 169.895 109.808 170.595 111.308 171.395Z" stroke="#E3122D" stroke-width="6"/>
    <path d="M74.2986 224.028L79.8276 214.452L89.3052 219.924L83.7762 229.5L89.2389 232.654L103.28 208.335L97.8172 205.181L92.3262 214.691L82.8486 209.219L88.3396 199.709L82.9098 196.574L68.8688 220.893L74.2986 224.028Z" fill="#E3122D"/>
    <path d="M36.4082 102.695C37.8082 101.895 39.2082 101.195 40.7082 100.495C42.2082 99.7954 43.6082 99.2954 45.2082 98.6954C46.8082 98.0954 48.3081 97.6954 49.8081 97.3954C51.4081 96.9954 52.9081 96.7954 54.5081 96.4954C56.1081 96.2954 57.7081 96.1954 59.3081 96.0954C60.9081 95.9954 62.5081 96.0954 64.1081 96.1954C65.7081 96.2954 67.3082 96.4954 68.9082 96.6954C70.5082 96.9954 72.0081 97.2954 73.6081 97.6954C75.2081 98.0954 76.7082 98.5954 78.2082 99.1954C79.7082 99.7954 81.2081 100.395 82.6081 101.095C84.0081 101.795 85.4081 102.595 86.8081 103.395C88.2081 104.195 89.5082 105.195 90.7082 106.095C92.0082 107.095 93.2082 108.095 94.4082 109.195C95.6082 110.295 96.7082 111.395 97.7082 112.595C98.8082 113.795 99.7082 115.095 100.708 116.395C101.608 117.695 102.508 118.995 103.308 120.395C104.108 121.795 104.808 123.195 105.508 124.695C106.208 126.195 106.708 127.595 107.308 129.195C107.908 130.795 108.308 132.295 108.608 133.795C108.908 135.295 109.208 136.895 109.508 138.495C109.708 140.095 109.808 141.695 109.908 143.295C110.008 144.895 109.908 146.495 109.808 148.095C109.708 149.695 109.508 151.295 109.308 152.895C109.008 154.495 108.708 155.995 108.308 157.595C107.908 159.095 107.408 160.695 106.808 162.195C106.208 163.695 105.608 165.195 104.908 166.595C104.208 167.995 103.408 169.395 102.608 170.795C101.808 172.195 100.808 173.495 99.9082 174.695C99.0082 175.895 97.9081 177.195 96.8081 178.395C95.7081 179.595 94.6082 180.695 93.4082 181.695C92.2082 182.795 90.9081 183.695 89.6081 184.695C88.3081 185.595 87.0081 186.495 85.6081 187.295C84.2081 188.095 82.8081 188.795 81.3081 189.495C79.8081 190.195 78.4081 190.695 76.8081 191.295C75.2081 191.895 73.7082 192.295 72.2082 192.595C70.6082 192.995 69.1081 193.195 67.5081 193.495C65.9081 193.795 64.3082 193.795 62.7082 193.895C61.1082 193.995 59.5082 193.895 57.9082 193.795C56.3082 193.695 54.7081 193.495 53.1081 193.295C51.5081 192.995 50.0082 192.695 48.4082 192.295C46.8082 191.895 45.3081 191.395 43.8081 190.795C42.3081 190.195 40.8082 189.595 39.4082 188.895C38.0082 188.195 36.6082 187.395 35.2082 186.595C33.8082 185.795 32.5081 184.795 31.3081 183.895C30.0081 182.895 28.8081 181.895 27.6081 180.795C26.4081 179.695 25.3081 178.595 24.3081 177.395C23.2081 176.195 22.3081 174.895 21.3081 173.595C20.4081 172.295 19.5082 170.995 18.7082 169.595C17.9082 168.195 17.2081 166.795 16.5081 165.295C15.8081 163.795 15.3082 162.395 14.7082 160.795C14.1082 159.195 13.7082 157.695 13.4082 156.195C13.1082 154.695 12.8081 153.095 12.5081 151.495C12.3081 149.895 12.2081 148.295 12.1081 146.695C12.0081 145.095 12.1082 143.495 12.2082 141.895C12.3082 140.295 12.5082 138.695 12.7082 137.095C13.0082 135.495 13.3082 133.995 13.7082 132.395C14.1082 130.895 14.6082 129.295 15.2082 127.795C15.8082 126.295 16.4081 124.795 17.1081 123.395C17.8081 121.995 18.6082 120.595 19.4082 119.195C20.2082 117.795 21.2081 116.495 22.1081 115.295C23.1081 113.995 24.1082 112.795 25.2082 111.595C26.3082 110.395 27.4081 109.295 28.6081 108.295C29.8081 107.195 31.1082 106.295 32.4082 105.295C33.7082 104.395 35.0082 103.495 36.4082 102.695Z" fill="#131E2B"/>
    <path d="M35.6081 101.395C37.0081 100.595 38.5082 99.7954 40.0082 99.0954C41.5082 98.3954 43.0081 97.7954 44.6081 97.2954C46.2081 96.7954 47.7082 96.2954 49.4082 95.8954C51.0082 95.4954 52.6081 95.1954 54.3081 94.9954C55.9081 94.7954 57.6082 94.5954 59.2082 94.5954C60.8082 94.5954 62.5081 94.5954 64.1081 94.6954C65.7081 94.7954 67.4081 94.9954 69.0081 95.2954C70.6081 95.5954 72.2081 95.8954 73.8081 96.2954C75.4081 96.6954 77.0081 97.1954 78.5081 97.7954C80.0081 98.3954 81.6081 98.9954 83.0081 99.7954C84.4081 100.595 85.9081 101.295 87.3081 102.195C88.7081 103.095 90.1082 103.995 91.4082 104.995C92.7082 105.995 94.0082 107.095 95.2082 108.195C96.4082 109.295 97.6081 110.495 98.6081 111.795C99.7081 112.995 100.708 114.295 101.708 115.695C102.708 116.995 103.608 118.395 104.408 119.895C105.208 121.295 106.008 122.795 106.708 124.295C107.408 125.795 108.008 127.295 108.508 128.895C109.008 130.495 109.508 131.995 109.908 133.695C110.308 135.395 110.608 136.895 110.808 138.595C111.008 140.195 111.208 141.895 111.208 143.495C111.308 145.095 111.208 146.795 111.108 148.395C111.008 149.995 110.808 151.695 110.508 153.295C110.208 154.895 109.908 156.495 109.508 158.095C109.108 159.695 108.608 161.295 108.008 162.795C107.408 164.295 106.808 165.895 106.008 167.295C105.308 168.795 104.508 170.195 103.608 171.595C102.708 172.995 101.808 174.395 100.808 175.695C99.8081 176.995 98.7081 178.295 97.6081 179.495C96.5081 180.695 95.3081 181.895 94.0081 182.895C92.8081 183.995 91.5081 184.995 90.1081 185.995C88.8081 186.995 87.4082 187.895 85.9082 188.695C84.4082 189.495 83.0081 190.295 81.5081 190.995C80.0081 191.695 78.5082 192.295 76.9082 192.795C75.3082 193.295 73.8081 193.795 72.1081 194.195C70.4081 194.595 68.9082 194.895 67.2082 195.095C65.6082 195.295 63.9081 195.495 62.3081 195.495C60.7081 195.595 59.0082 195.495 57.4082 195.395C55.8082 195.295 54.1081 195.095 52.5081 194.795C50.9081 194.495 49.3082 194.195 47.7082 193.795C46.1082 193.395 44.5081 192.895 43.0081 192.295C41.5081 191.695 39.9082 191.095 38.5082 190.295C37.0082 189.595 35.6082 188.795 34.2082 187.895C32.8082 186.995 31.4081 186.095 30.1081 185.095C28.8081 184.095 27.5081 182.995 26.3081 181.895C25.1081 180.795 23.9082 179.595 22.9082 178.295C21.8082 177.095 20.8081 175.795 19.8081 174.395C18.8081 173.095 17.9081 171.695 17.1081 170.195C16.3081 168.695 15.5081 167.295 14.8081 165.795C14.1081 164.295 13.5081 162.795 13.0081 161.195C12.5081 159.595 12.0081 158.095 11.6081 156.395C11.2081 154.795 10.9082 153.195 10.7082 151.495C10.5082 149.795 10.3081 148.195 10.3081 146.595C10.2081 144.995 10.3082 143.295 10.4082 141.695C10.5082 140.095 10.7081 138.395 11.0081 136.795C11.3081 135.195 11.6081 133.595 12.0081 131.995C12.4081 130.395 12.9081 128.795 13.5081 127.295C14.1081 125.795 14.7081 124.195 15.5081 122.795C16.3081 121.395 17.0082 119.895 17.9082 118.495C18.8082 117.095 19.7082 115.695 20.7082 114.395C21.7082 113.095 22.8082 111.795 23.9082 110.595C25.0082 109.395 26.2082 108.195 27.5082 107.195C28.8082 106.195 30.0082 105.095 31.4082 104.095C32.8082 103.095 34.2081 102.295 35.6081 101.395Z" stroke="#E5DFDF" stroke-width="6"/>
    <path d="M74.8081 187.495C69.1081 190.795 62.9082 192.895 56.4082 193.695C50.1082 194.495 43.8082 193.995 37.7082 192.395C31.6082 190.795 25.9082 187.995 20.9082 184.195C15.7082 180.295 11.4081 175.395 8.10813 169.595C4.80813 163.895 2.70817 157.695 1.90817 151.195C1.10817 144.895 1.60816 138.595 3.20816 132.495C4.80816 126.395 7.60817 120.695 11.4082 115.695C15.3082 110.495 20.2081 106.195 26.0082 102.895C31.7081 99.5954 37.9082 97.4954 44.4082 96.6954C50.7082 95.8954 57.0081 96.3954 63.1081 97.9954C69.2081 99.5954 74.9082 102.395 79.9082 106.195C85.1082 110.095 89.4082 114.995 92.7082 120.795C96.0082 126.495 98.1082 132.695 98.9082 139.195C99.7082 145.495 99.2081 151.795 97.6081 157.895C96.0081 163.995 93.2082 169.695 89.4082 174.695C85.4082 179.895 80.5081 184.295 74.8081 187.495Z" fill="#131E2B"/>
    <path d="M25.2082 101.595C49.3082 87.6954 80.1082 95.8954 94.0082 119.995C107.908 144.095 99.7082 174.895 75.6082 188.795C51.5082 202.695 20.7082 194.495 6.80818 170.395C-7.19182 146.295 1.1082 115.495 25.2082 101.595ZM26.7082 104.195C21.2082 107.395 16.4082 111.595 12.6082 116.595C8.90817 121.495 6.20817 126.995 4.60817 132.895C3.00817 138.795 2.60818 144.895 3.30818 150.995C4.10818 157.295 6.10818 163.295 9.30818 168.795C12.5082 174.295 16.7082 179.095 21.7082 182.895C26.6082 186.595 32.1082 189.295 38.0082 190.895C43.9082 192.495 50.0082 192.895 56.1082 192.195C62.4082 191.395 68.4082 189.395 73.9082 186.195C79.4082 182.995 84.2082 178.795 88.0082 173.795C91.7082 168.895 94.4082 163.395 96.0082 157.495C97.6082 151.595 98.0082 145.495 97.3082 139.395C96.5082 133.095 94.5082 127.095 91.3082 121.595C88.1082 116.095 83.9082 111.295 78.9082 107.495C74.0082 103.795 68.5082 101.095 62.6082 99.4954C56.7082 97.8954 50.6082 97.4954 44.5082 98.1954C38.2082 98.9954 32.2082 100.995 26.7082 104.195Z" fill="#E5DFDF"/>
    <path d="M58.6905 162.207L64.1532 159.053L53.1332 139.967L59.9781 136.015L56.9571 130.782L37.7717 141.859L40.7927 147.092L47.6705 143.121L58.6905 162.207Z" fill="#E5DFDF"/>
    <path d="M130.508 34.8954C131.308 36.2954 132.108 37.6954 132.808 39.0954C133.508 40.4954 134.208 41.9954 134.708 43.4954C135.308 44.9954 135.808 46.4954 136.208 48.0954C136.608 49.6954 137.008 51.1954 137.208 52.7954C137.508 54.3954 137.708 55.9954 137.808 57.5954C137.908 59.1954 137.908 60.7954 137.908 62.3954C137.908 63.9954 137.708 65.5954 137.508 67.1954C137.308 68.7954 137.008 70.3954 136.708 71.8954C136.308 73.4954 135.908 74.9954 135.408 76.4954C134.908 77.9954 134.308 79.4954 133.608 80.9954C132.908 82.4954 132.208 83.8954 131.408 85.2954C130.608 86.6954 129.708 87.9954 128.808 89.2954C127.908 90.5954 126.908 91.8954 125.808 93.0954C124.708 94.2954 123.608 95.4954 122.508 96.5954C121.308 97.6954 120.108 98.6954 118.808 99.6954C117.508 100.695 116.208 101.595 114.908 102.395C113.508 103.195 112.108 103.995 110.708 104.695C109.308 105.395 107.808 106.095 106.308 106.595C104.808 107.195 103.308 107.695 101.708 108.095C100.208 108.495 98.6082 108.895 97.0082 109.095C95.4082 109.295 93.8082 109.595 92.2082 109.695C90.6082 109.795 89.0082 109.795 87.4082 109.795C85.8082 109.795 84.2082 109.595 82.6082 109.395C81.0082 109.195 79.4082 108.895 77.9082 108.595C76.3082 108.195 74.8082 107.795 73.3082 107.295C71.8082 106.795 70.3082 106.195 68.8082 105.495C67.3082 104.795 65.9082 104.095 64.5082 103.295C63.1082 102.495 61.8082 101.595 60.5082 100.695C59.2082 99.7954 57.9082 98.7954 56.7082 97.6954C55.5082 96.5954 54.3082 95.4954 53.2082 94.3954C52.1082 93.2954 51.1082 91.9954 50.1082 90.6954C49.1082 89.3954 48.2082 88.0954 47.4082 86.7954C46.6082 85.3954 45.8082 83.9954 45.1082 82.5954C44.4082 81.1954 43.7082 79.6954 43.2082 78.1954C42.6082 76.6954 42.1082 75.1954 41.7082 73.5954C41.3082 71.9954 40.9082 70.4954 40.7082 68.8954C40.4082 67.2954 40.2082 65.6954 40.1082 64.0954C40.0082 62.4954 40.0082 60.8954 40.0082 59.2954C40.0082 57.6954 40.2082 56.0954 40.4082 54.4954C40.6082 52.8954 40.9082 51.2954 41.2082 49.7954C41.5082 48.2954 42.0082 46.6954 42.5082 45.1954C43.0082 43.6954 43.6082 42.1954 44.3082 40.6954C45.0082 39.1954 45.7082 37.7954 46.5082 36.3954C47.3082 34.9954 48.2082 33.6954 49.1082 32.3954C50.0082 31.0954 51.0082 29.7954 52.1082 28.5954C53.2082 27.3954 54.3082 26.1954 55.4082 25.0954C56.5082 23.9954 57.8082 22.9954 59.1082 21.9954C60.4082 20.9954 61.7082 20.0954 63.0082 19.2954C64.4082 18.4954 65.8082 17.6954 67.2082 16.9954C68.6082 16.2954 70.1082 15.5954 71.6082 15.0954C73.1082 14.4954 74.6082 13.9954 76.2082 13.5954C77.7082 13.1954 79.3082 12.7954 80.9082 12.5954C82.5082 12.2954 84.1082 12.0954 85.7082 11.9954C87.3082 11.8954 88.9082 11.8954 90.5082 11.8954C92.1082 11.8954 93.7082 12.0954 95.3082 12.2954C96.9082 12.4954 98.5082 12.7954 100.008 13.0954C101.508 13.3954 103.108 13.8954 104.608 14.3954C106.108 14.8954 107.608 15.4954 109.108 16.1954C110.608 16.8954 112.008 17.5954 113.408 18.3954C114.808 19.1954 116.108 20.0954 117.408 20.9954C118.708 21.8954 120.008 22.8954 121.208 23.9954C122.408 25.0954 123.608 26.1954 124.708 27.2954C125.808 28.4954 126.808 29.6954 127.808 30.9954C128.708 32.1954 129.608 33.4954 130.508 34.8954Z" fill="#E5DFDF"/>
    <path d="M131.708 34.0954C132.608 35.4954 133.408 36.8954 134.108 38.3954C134.808 39.8954 135.508 41.3954 136.108 42.8954C136.708 44.3954 137.208 45.9954 137.608 47.5954C138.008 49.1954 138.408 50.7954 138.708 52.3954C139.008 53.9954 139.208 55.6954 139.308 57.2954C139.408 58.8954 139.408 60.5954 139.408 62.1954C139.308 63.7954 139.208 65.4954 139.008 67.0954C138.808 68.6954 138.508 70.3954 138.108 71.9954C137.708 73.5954 137.308 75.1954 136.808 76.7954C136.308 78.3954 135.708 79.8954 135.008 81.3954C134.308 82.8954 133.608 84.3954 132.808 85.7954C132.008 87.1954 131.108 88.5954 130.108 89.9954C129.108 91.2954 128.108 92.5954 127.008 93.8954C125.908 95.0954 124.808 96.2954 123.608 97.4954C122.408 98.5954 121.108 99.6954 119.808 100.695C118.508 101.695 117.108 102.595 115.708 103.495C114.308 104.395 112.908 105.195 111.408 105.895C109.908 106.595 108.408 107.295 106.908 107.895C105.408 108.495 103.808 108.995 102.208 109.395C100.608 109.795 99.0082 110.195 97.4082 110.495C95.8082 110.795 94.1082 110.995 92.5082 111.095C90.9082 111.195 89.2082 111.195 87.6082 111.195C86.0082 111.095 84.3082 110.995 82.7082 110.795C81.1082 110.595 79.4082 110.295 77.8082 109.895C76.2082 109.495 74.6082 109.095 73.0082 108.595C71.4082 108.095 69.9082 107.495 68.4082 106.795C66.9082 106.095 65.4082 105.395 64.0082 104.595C62.6082 103.795 61.2082 102.895 59.8082 101.895C58.5082 100.895 57.2082 99.8954 55.9082 98.7954C54.6082 97.6954 53.5082 96.5954 52.3082 95.3954C51.1082 94.1954 50.1082 92.8954 49.1082 91.5954C48.1082 90.2954 47.2082 88.8954 46.3082 87.4954C45.4082 86.0954 44.6082 84.6954 43.9082 83.1954C43.2082 81.6954 42.5082 80.1954 41.9082 78.6954C41.3082 77.1954 40.8082 75.5954 40.4082 73.9954C40.0082 72.3954 39.6082 70.7954 39.3082 69.1954C39.0082 67.5954 38.8082 65.8954 38.7082 64.2954C38.6082 62.6954 38.6082 60.9954 38.6082 59.3954C38.7082 57.7954 38.8082 56.0954 39.0082 54.4954C39.2082 52.8954 39.5082 51.1954 39.9082 49.5954C40.3082 47.9954 40.7082 46.3954 41.2082 44.7954C41.7082 43.1954 42.3082 41.6954 43.0082 40.1954C43.7082 38.6954 44.4082 37.1954 45.2082 35.7954C46.0082 34.3954 46.9082 32.9954 47.9082 31.5954C48.9082 30.2954 49.9082 28.9954 51.0082 27.6954C52.1082 26.3954 53.2082 25.2954 54.4082 24.0954C55.6082 22.9954 56.9082 21.8954 58.2082 20.8954C59.5082 19.8954 60.9082 18.9954 62.3082 18.0954C63.7082 17.1954 65.1082 16.3954 66.6082 15.6954C68.1082 14.9954 69.6082 14.2954 71.1082 13.6954C72.6082 13.0954 74.2082 12.5954 75.8082 12.1954C77.4082 11.7954 79.0082 11.3954 80.6082 11.0954C82.2082 10.7954 83.9082 10.5954 85.5082 10.4954C87.1082 10.3954 88.8082 10.3954 90.4082 10.3954C92.0082 10.3954 93.7082 10.5954 95.3082 10.7954C96.9082 10.9954 98.6082 11.2954 100.208 11.6954C101.808 12.0954 103.408 12.4954 105.008 12.9954C106.608 13.4954 108.108 14.0954 109.608 14.7954C111.108 15.4954 112.608 16.1954 114.008 16.9954C115.408 17.7954 116.808 18.6954 118.208 19.6954C119.608 20.6954 120.808 21.6954 122.108 22.7954C123.308 23.8954 124.508 24.9954 125.708 26.1954C126.808 27.3954 127.908 28.6954 128.908 29.9954C129.908 31.3954 130.908 32.6954 131.708 34.0954Z" stroke="#E3122D" stroke-width="6"/>
    <path d="M47.0082 76.2954C43.5082 70.6954 41.2082 64.5954 40.2082 58.0954C39.2082 51.8954 39.4082 45.5954 40.9082 39.3954C42.3082 33.1954 44.9082 27.4954 48.5082 22.2954C52.3082 16.8954 57.0082 12.4954 62.6082 8.99537C68.2082 5.49537 74.3082 3.19538 80.8082 2.19538C87.0082 1.19538 93.3082 1.39536 99.5082 2.89536C105.708 4.29536 111.408 6.89537 116.608 10.4954C122.008 14.2954 126.408 18.9954 129.908 24.5954C133.408 30.1954 135.708 36.2954 136.708 42.7954C137.708 48.9954 137.508 55.2954 136.008 61.4954C134.508 67.6954 132.008 73.3954 128.408 78.5954C124.608 83.9954 119.908 88.3954 114.308 91.8954C108.708 95.3954 102.608 97.6954 96.1082 98.6954C89.9082 99.6954 83.6082 99.4954 77.4082 97.9954C71.2082 96.4954 65.5082 93.9954 60.3082 90.3954C55.0082 86.5954 50.5082 81.8954 47.0082 76.2954Z" fill="#E5DFDF"/>
    <path d="M131.208 23.6954C145.908 47.2954 138.808 78.3954 115.208 93.0954C91.6082 107.795 60.5081 100.695 45.8081 77.0954C31.1081 53.4954 38.2081 22.3954 61.8081 7.69538C85.4081 -7.10462 116.508 0.095377 131.208 23.6954ZM128.708 25.2954C125.308 19.8954 121.008 15.2954 115.808 11.5954C110.808 8.09537 105.208 5.59538 99.2082 4.19538C93.2082 2.79538 87.1082 2.59537 81.0082 3.59537C74.7082 4.59537 68.8082 6.79538 63.4082 10.1954C58.0082 13.5954 53.4082 17.8954 49.7082 23.0954C46.2082 28.0954 43.7081 33.6954 42.3081 39.6954C40.9081 45.6954 40.7082 51.7954 41.7082 57.8954C42.7082 64.1954 44.9081 70.0954 48.3081 75.4954C51.7081 80.8954 56.0082 85.4954 61.2082 89.1954C66.2082 92.6954 71.8081 95.1954 77.8081 96.5954C83.8081 97.9954 89.9082 98.1954 96.0082 97.1954C102.308 96.1954 108.208 93.9954 113.608 90.5954C119.008 87.1954 123.608 82.8954 127.308 77.6954C130.808 72.6954 133.308 67.0954 134.708 61.0954C136.108 55.0954 136.308 48.9954 135.308 42.8954C134.308 36.5954 132.008 30.6954 128.708 25.2954Z" fill="#E3122D"/>
    <path d="M72.0102 54.2369L81.3874 48.3773L87.1866 57.6578L77.8095 63.5174L81.1521 68.8666L104.966 53.9859L101.623 48.6368L92.3103 54.4561L86.511 45.1756L95.8238 39.3562L92.5013 34.0393L68.6878 48.9199L72.0102 54.2369Z" fill="#E3122D"/>
</svg>
