<svg width="220" height="284" viewBox="0 0 220 284" fill="none" xmlns="http://www.w3.org/2000/svg">
    <path d="M35.7001 161V257.1C35.7001 257.3 35.6 257.5 35.5 257.6C35.4 257.7 35.2 257.8 35 257.8H2.70007C2.50007 257.8 2.30007 257.7 2.20007 257.6C2.10007 257.5 2 257.3 2 257.1V161C2 160.8 2.10007 160.6 2.20007 160.5C2.30007 160.4 2.50007 160.3 2.70007 160.3H35C35.2 160.3 35.4 160.4 35.5 160.5C35.6 160.6 35.7001 160.8 35.7001 161Z" stroke="#131E2B" stroke-width="4"/>
    <path d="M18.8 134.7V160.3" stroke="#131E2B" stroke-width="4" stroke-linecap="round"/>
    <path d="M18.8 257.8V283.3" stroke="#131E2B" stroke-width="4"/>
    <path d="M80.6 132V182C80.6 182.2 80.5 182.4 80.4 182.5C80.3 182.6 80.1 182.7 79.9 182.7H47.6C47.4 182.7 47.2 182.6 47.1 182.5C47 182.4 46.9 182.2 46.9 182V132C46.9 131.8 47 131.6 47.1 131.5C47.2 131.4 47.4 131.3 47.6 131.3H79.9C80.1 131.3 80.3 131.4 80.4 131.5C80.5 131.6 80.6 131.8 80.6 132Z" fill="#131E2B"/>
    <path d="M63.7001 103.4V198.2" stroke="#131E2B" stroke-width="4" stroke-linecap="round"/>
    <path d="M124.8 161.9H92.5C92.1 161.9 91.8 161.6 91.8 161.2V25.4C91.8 25 92.1 24.7 92.5 24.7H124.8C125.2 24.7 125.5 25 125.5 25.4V161.1C125.6 161.6 125.2 161.9 124.8 161.9Z" fill="#E3122D"/>
    <path d="M108.7 2V193.6" stroke="#E3122D" stroke-width="4" stroke-linecap="round"/>
    <path d="M170.5 92.3V228C170.5 228.2 170.4 228.4 170.3 228.5C170.2 228.6 170 228.7 169.8 228.7H137.5C137.3 228.7 137.1 228.6 137 228.5C136.9 228.4 136.8 228.2 136.8 228V92.3C136.8 92.1 136.9 91.9 137 91.8C137.1 91.7 137.3 91.6 137.5 91.6H169.8C170 91.6 170.2 91.7 170.3 91.8C170.4 91.9 170.5 92.1 170.5 92.3Z" fill="#131E2B"/>
    <path d="M153.6 77.8V247.7" stroke="#131E2B" stroke-width="4" stroke-linecap="round"/>
    <path d="M217.8 96.9V174.9C217.8 175.1 217.7 175.3 217.6 175.4C217.5 175.5 217.3 175.6 217.1 175.6H184.8C184.6 175.6 184.4 175.5 184.3 175.4C184.2 175.3 184.1 175.1 184.1 174.9V96.9C184.1 96.7 184.2 96.5 184.3 96.4C184.4 96.3 184.6 96.2 184.8 96.2H217.1C217.3 96.2 217.5 96.3 217.6 96.4C217.7 96.6 217.8 96.7 217.8 96.9Z" stroke="#131E2B" stroke-width="4"/>
    <path d="M200.9 75.9V95.6" stroke="#131E2B" stroke-width="4" stroke-linecap="round"/>
    <path d="M200.9 175.7V193.6" stroke="#131E2B" stroke-width="4"/>
</svg>
