<svg width="220" height="264" viewBox="0 0 220 264" fill="none" xmlns="http://www.w3.org/2000/svg">
    <path d="M35.7 106.7V202.8C35.7 203 35.6 203.2 35.5 203.3C35.4 203.4 35.2 203.5 35 203.5H2.70001C2.50001 203.5 2.30001 203.4 2.20001 203.3C2.10001 203.2 2 203 2 202.8V106.7C2 106.5 2.10001 106.3 2.20001 106.2C2.30001 106.1 2.50001 106 2.70001 106H35C35.2 106 35.4 106.1 35.5 106.2C35.7 106.3 35.7 106.5 35.7 106.7Z" stroke="#131E2B" stroke-width="4"/>
    <path d="M18.9 80.5V106" stroke="#131E2B" stroke-width="4" stroke-linecap="round"/>
    <path d="M18.9 203.5V229" stroke="#131E2B" stroke-width="4"/>
    <path d="M80.7 111.9V162C80.7 162.2 80.6 162.4 80.5 162.5C80.4 162.6 80.2 162.7 80 162.7H47.7C47.5 162.7 47.3 162.6 47.2 162.5C47.1 162.4 47 162.2 47 162V111.9C47 111.7 47.1 111.5 47.2 111.4C47.3 111.3 47.5 111.2 47.7 111.2H80C80.2 111.2 80.4 111.3 80.5 111.4C80.6 111.5 80.7 111.7 80.7 111.9Z" fill="#131E2B"/>
    <path d="M80.7 111.9V162C80.7 162.2 80.6 162.4 80.5 162.5C80.4 162.6 80.2 162.7 80 162.7H47.7C47.5 162.7 47.3 162.6 47.2 162.5C47.1 162.4 47 162.2 47 162V111.9C47 111.7 47.1 111.5 47.2 111.4C47.3 111.3 47.5 111.2 47.7 111.2H80C80.2 111.2 80.4 111.3 80.5 111.4C80.6 111.5 80.7 111.7 80.7 111.9Z" stroke="#E3122D" stroke-width="3"/>
    <path d="M63.8 83.4V171" stroke="#131E2B" stroke-width="4" stroke-linecap="round"/>
    <path d="M63.8 162.7V190.5" stroke="#131E2B" stroke-width="3" stroke-linecap="round"/>
    <path d="M125.7 25.5V172.1C125.7 172.3 125.6 172.5 125.5 172.6C125.4 172.7 125.2 172.8 125 172.8H92.6C92.4 172.8 92.2 172.7 92.1 172.6C92 172.5 91.9 172.3 91.9 172.1V25.5C91.9 25.3 92 25.1 92.1 25C92.2 24.9 92.4 24.8 92.6 24.8H124.9C125.1 24.8 125.3 24.9 125.4 25C125.6 25.1 125.7 25.2 125.7 25.5Z" fill="#EAEAEA"/>
    <path d="M125.7 25.5V172.1C125.7 172.3 125.6 172.5 125.5 172.6C125.4 172.7 125.2 172.8 125 172.8H92.6C92.4 172.8 92.2 172.7 92.1 172.6C92 172.5 91.9 172.3 91.9 172.1V25.5C91.9 25.3 92 25.1 92.1 25C92.2 24.9 92.4 24.8 92.6 24.8H124.9C125.1 24.8 125.3 24.9 125.4 25C125.6 25.1 125.7 25.2 125.7 25.5Z" stroke="#EAEAEA"/>
    <path d="M108.8 2V193.6" stroke="#EAEAEA" stroke-width="4" stroke-linecap="round"/>
    <path d="M170.6 82.3V218C170.6 218.2 170.5 218.4 170.4 218.5C170.3 218.6 170.1 218.7 169.9 218.7H137.6C137.4 218.7 137.2 218.6 137.1 218.5C137 218.4 136.9 218.2 136.9 218V82.3C136.9 82.1 137 81.9 137.1 81.8C137.2 81.7 137.4 81.6 137.6 81.6H169.9C170.1 81.6 170.3 81.7 170.4 81.8C170.5 81.9 170.6 82.1 170.6 82.3Z" fill="#131E2B"/>
    <path d="M153.7 67.8V237.7" stroke="#131E2B" stroke-width="4" stroke-linecap="round"/>
    <path d="M217.9 166.7V244.7C217.9 244.9 217.8 245.1 217.7 245.2C217.6 245.3 217.4 245.4 217.2 245.4H184.9C184.7 245.4 184.5 245.3 184.4 245.2C184.3 245.1 184.2 244.9 184.2 244.7V166.7C184.2 166.5 184.3 166.3 184.4 166.2C184.5 166.1 184.7 166 184.9 166H217.2C217.4 166 217.6 166.1 217.7 166.2C217.8 166.3 217.9 166.5 217.9 166.7Z" stroke="#131E2B" stroke-width="4"/>
    <path d="M201 145.6V165.3" stroke="#131E2B" stroke-width="4" stroke-linecap="round"/>
    <path d="M201 245.5V263.4" stroke="#131E2B" stroke-width="4"/>
</svg>
