<svg width="88" height="30" viewBox="0 0 88 30" fill="none" xmlns="http://www.w3.org/2000/svg">
    <path d="M37.2656 18.7378L35.2636 13.3368H33.1626L36.4956 21.4658H38.0356L41.3246 13.3368H39.2456L37.2656 18.7378ZM44.4021 21.6088C45.3261 21.6088 46.0741 21.3668 46.6351 20.8938C47.2071 20.4208 47.4931 19.8048 47.4931 19.0678C47.4931 18.1328 47.0091 17.4398 46.0301 16.9998C45.8211 16.9008 45.5131 16.7798 45.0951 16.6148L44.3031 16.2958C43.8631 16.0978 43.6431 15.8558 43.6431 15.5808C43.6431 15.1848 43.9951 14.9098 44.6111 14.9098C45.2161 14.9098 45.9751 15.1848 46.4481 15.6358L47.3501 14.2828C46.5911 13.5678 45.6671 13.2048 44.5891 13.2048C43.7421 13.2048 43.0381 13.4358 42.4991 13.8978C41.9601 14.3598 41.6961 14.9428 41.6961 15.6468C41.6961 16.5378 42.1361 17.2308 43.0051 17.7038C43.2361 17.8248 43.5881 17.9788 44.0501 18.1548L44.7761 18.4188C45.2491 18.6278 45.4801 18.8808 45.4801 19.1778C45.4801 19.6288 45.0291 19.9148 44.4131 19.9148C43.5441 19.9148 42.8071 19.5518 42.2021 18.8368L41.2121 20.1348C41.9601 21.0918 43.1151 21.6088 44.4021 21.6088Z" fill="white"/>
    <path d="M23.6403 14.8655L21.5403 10.7655C21.5403 4.3655 16.0403 -0.634494 9.54035 0.0655055C4.44035 0.665506 0.440347 4.76549 0.0403472 9.86549C-0.259653 13.2655 1.14033 16.4655 3.34033 18.5655C4.64033 19.7655 5.34033 21.4655 5.34033 23.2655V29.2655H16.1403V22.6655C16.1403 22.0655 16.6404 21.5655 17.2404 21.5655H18.9404C20.3404 21.5655 21.5403 20.3655 21.5403 18.9655V16.1655H22.8403C23.6403 16.0655 24.0403 15.4655 23.6403 14.8655Z" fill="#E3122D"/>
    <path fill-rule="evenodd" clip-rule="evenodd" d="M60.1426 26.0498V13.0509H62.1424V26.0498C62.1424 26.315 62.2478 26.5693 62.4353 26.7569C62.6228 26.9444 62.8771 27.0497 63.1423 27.0497H81.1408C81.406 27.0497 81.6603 26.9444 81.8479 26.7569C82.0354 26.5693 82.1407 26.315 82.1407 26.0498V13.0509H84.1406V26.0498C84.1406 26.8454 83.8245 27.6084 83.262 28.171C82.6994 28.7335 81.9364 29.0496 81.1408 29.0496H63.1423C62.3467 29.0496 61.5837 28.7335 61.0212 28.171C60.4586 27.6084 60.1426 26.8454 60.1426 26.0498V26.0498ZM82.1407 4.05167V11.0511L78.1411 7.05142V4.05167C78.1411 3.78648 78.2464 3.53215 78.4339 3.34463C78.6215 3.15711 78.8758 3.05176 79.141 3.05176H81.1408C81.406 3.05176 81.6603 3.15711 81.8479 3.34463C82.0354 3.53215 82.1407 3.78648 82.1407 4.05167Z" fill="#F0EFEE"/>
    <path fill-rule="evenodd" clip-rule="evenodd" d="M70.7267 2.05134C71.1018 1.67643 71.6103 1.46582 72.1406 1.46582C72.6709 1.46582 73.1795 1.67643 73.5545 2.05134L86.8474 15.3422C87.0351 15.53 87.1406 15.7846 87.1406 16.0502C87.1406 16.3157 87.0351 16.5704 86.8474 16.7581C86.6596 16.9459 86.405 17.0513 86.1394 17.0513C85.8739 17.0513 85.6193 16.9459 85.4315 16.7581L72.1406 3.46523L58.8497 16.7581C58.662 16.9459 58.4073 17.0513 58.1418 17.0513C57.8763 17.0513 57.6216 16.9459 57.4339 16.7581C57.2461 16.5704 57.1406 16.3157 57.1406 16.0502C57.1406 15.7846 57.2461 15.53 57.4339 15.3422L70.7267 2.05134Z" fill="#F0EFEE"/>
</svg>
