<svg width="90" height="36" viewBox="0 0 90 36" fill="none" xmlns="http://www.w3.org/2000/svg">
    <path d="M41.3545 20.7798L39.3525 15.3788H37.2515L40.5845 23.5078H42.1245L45.4135 15.3788H43.3345L41.3545 20.7798ZM48.491 23.6508C49.415 23.6508 50.163 23.4088 50.724 22.9358C51.296 22.4628 51.582 21.8468 51.582 21.1098C51.582 20.1748 51.098 19.4818 50.119 19.0418C49.91 18.9428 49.602 18.8218 49.184 18.6568L48.392 18.3378C47.952 18.1398 47.732 17.8978 47.732 17.6228C47.732 17.2268 48.084 16.9518 48.7 16.9518C49.305 16.9518 50.064 17.2268 50.537 17.6778L51.439 16.3248C50.68 15.6098 49.756 15.2468 48.678 15.2468C47.831 15.2468 47.127 15.4778 46.588 15.9398C46.049 16.4018 45.785 16.9848 45.785 17.6888C45.785 18.5798 46.225 19.2728 47.094 19.7458C47.325 19.8668 47.677 20.0208 48.139 20.1968L48.865 20.4608C49.338 20.6698 49.569 20.9228 49.569 21.2198C49.569 21.6708 49.118 21.9568 48.502 21.9568C47.633 21.9568 46.896 21.5938 46.291 20.8788L45.301 22.1768C46.049 23.1338 47.204 23.6508 48.491 23.6508Z" fill="white"/>
    <path d="M27.8787 18.3386L25.4787 13.5386C25.4787 6.13861 19.0787 0.238609 11.4787 1.03861C5.57867 1.73861 0.878675 6.53862 0.378675 12.4386C0.0786749 16.4386 1.57868 20.1386 4.27868 22.6386C5.77868 24.0386 6.57867 26.0386 6.57867 28.1386V35.0386H19.0787V27.3386C19.0787 26.6386 19.6787 26.0386 20.3787 26.0386H22.3787C24.0787 26.0386 25.3787 24.7386 25.3787 23.0386V19.7386H26.8787C27.8787 19.7386 28.2787 19.1386 27.8787 18.3386Z" fill="#E3122D"/>
    <path d="M83.1783 35.039H70.6783V27.339C70.6783 26.639 70.0783 26.039 69.3783 26.039H67.3783C65.6783 26.039 64.3783 24.739 64.3783 23.039V19.739H62.8783C61.9783 19.739 61.5783 19.039 61.9783 18.239L64.3783 13.439C64.3783 6.039 70.7783 0.139 78.3783 0.939C84.2783 1.639 88.9783 6.43899 89.4783 12.339C89.7783 16.339 88.2783 20.039 85.5783 22.539C84.0783 23.939 83.2783 25.939 83.2783 28.039L83.1783 35.039ZM81.6783 33.539V28.139C81.6783 25.639 82.6783 23.239 84.4783 21.539C86.9783 19.239 88.1783 15.939 87.8783 12.539C87.6783 10.039 86.5783 7.63899 84.7783 5.83899C82.9783 4.03899 80.6783 2.83899 78.0783 2.53899C77.6783 2.53899 77.2783 2.439 76.7783 2.439C73.7783 2.439 71.0783 3.539 68.9783 5.639C66.8783 7.739 65.7783 10.539 65.7783 13.439V13.839L63.5783 18.239H65.7783V23.039C65.7783 23.839 66.4783 24.539 67.2783 24.539H69.2783C70.7783 24.539 72.0783 25.739 72.0783 27.239V33.439H81.6783" fill="white"/>
</svg>
