<svg width="1677" height="426" xmlns="http://www.w3.org/2000/svg" viewBox="0 0 1677 426"><defs><style>.cls-1{fill:none;stroke:#3e536b;stroke-width:2px;}</style></defs><path class="cls-1" d="M30.84,389.28Q3.92,367.42,3.92,322.65V264.56a2.36,2.36,0,0,1,2.67-2.67h95.94a2.36,2.36,0,0,1,2.66,2.67v57q0,9.06,2.14,12c1.41,2,4.26,2.93,8.52,2.93s7.11-1,8.53-2.93,2.13-5.95,2.13-12V282.68q0-10.67-9.59-18.12T86.54,246.43L76.41,241.1q-25.06-12.78-38.64-21.58A87.82,87.82,0,0,1,14.05,196.6Q3.91,182.49,3.92,162.22v-51.7q0-43.71,27.72-66.1T113.19,22Q174,22,200.87,43.89t26.92,66.63v49a2.36,2.36,0,0,1-2.67,2.67H129.18a2.36,2.36,0,0,1-2.67-2.67v-48q0-9.06-2.13-12t-8.53-2.93c-4.26,0-7.11,1-8.52,2.93s-2.14,6-2.14,12v34.65q0,9.06,8.53,15.46a127.37,127.37,0,0,0,20.52,12.25q12,5.88,16.26,8,35.17,17.59,56.23,36.51t21.06,48.24v56q0,43.71-27.72,66.1t-81.55,22.38Q57.76,411.13,30.84,389.28Z"/><path class="cls-1" d="M481,32.16V97.72q0,4.27-2.66,4.27H415.93V403.14a2.35,2.35,0,0,1-2.66,2.66H317.33a2.35,2.35,0,0,1-2.67-2.66V102H251.77c-1.79,0-2.67-1.42-2.67-4.27V32.16c0-3.19.88-4.79,2.67-4.79H478.3Q481,27.37,481,32.16Z"/><path class="cls-1" d="M735.74,405a3.52,3.52,0,0,1-2.13.8H637.67c-1.07,0-2-.88-2.67-2.66l-8-65H585.43l-8,65c-.72,1.78-1.6,2.66-2.67,2.66H478.83a3.47,3.47,0,0,1-2.13-.8,1.35,1.35,0,0,1-.53-1.86L531.6,30c.71-1.77,1.6-2.66,2.66-2.66H678.18c1.06,0,1.94.89,2.66,2.66l55.43,373.11A1.37,1.37,0,0,1,735.74,405ZM604.09,98.79q0,21.85-2.67,71.16t-6.93,93.54h24q-4.28-44.78-6.66-94.08t-2.4-70.62Z"/><path class="cls-1" d="M763.46,30a2.35,2.35,0,0,1,2.66-2.66h95.94A2.36,2.36,0,0,1,864.73,30V169.68h7.46q0-27.7,2.13-54.1A280.59,280.59,0,0,1,885,59.88L893.51,30c.71-1.77,1.6-2.66,2.67-2.66h103.93a3.54,3.54,0,0,1,2.14.8,1.37,1.37,0,0,1,.53,1.86L935.09,216.58l67.69,186.56a1.37,1.37,0,0,1-.53,1.86,3.54,3.54,0,0,1-2.14.8H896.18c-1.07,0-2-.88-2.67-2.66L885,373.29q-8.54-30.9-10.66-56t-2.13-53.83h-7.46V403.14a2.35,2.35,0,0,1-2.67,2.66H766.12a2.35,2.35,0,0,1-2.66-2.66Z"/><path class="cls-1" d="M1032.09,403.14V30a2.36,2.36,0,0,1,2.67-2.66h95.94a2.36,2.36,0,0,1,2.67,2.66V403.14a2.36,2.36,0,0,1-2.67,2.66h-95.94A2.35,2.35,0,0,1,1032.09,403.14Z"/><path class="cls-1" d="M1181.34,403.14V30a2.35,2.35,0,0,1,2.66-2.66h85.28A2.36,2.36,0,0,1,1272,30l46.9,208.41h5.33q-9.59-60.23-14.92-104.47t-5.33-74.62V30a2.35,2.35,0,0,1,2.66-2.66h96A2.35,2.35,0,0,1,1405.2,30V403.14a2.35,2.35,0,0,1-2.66,2.66h-85.29a2.35,2.35,0,0,1-2.66-2.66l-46.91-208.41h-5.33q8.52,50.11,14.4,98.88t5.86,80.21v29.32a2.35,2.35,0,0,1-2.67,2.66H1184A2.35,2.35,0,0,1,1181.34,403.14Z"/><path class="cls-1" d="M1570.43,167.55v-56c0-6-.72-10-2.13-12s-4.27-2.93-8.53-2.93-7.11,1-8.53,2.93-2.13,6-2.13,12V317.86q0,9.58,3.46,12.79t10.4,3.2a12.14,12.14,0,0,0,9.33-3.73c2.3-2.49,3.46-7.28,3.46-14.4V258.16h-13.32c-1.79,0-2.67-1.42-2.67-4.26V188.34c0-3.2.88-4.8,2.67-4.8H1669q2.65,0,2.66,4.8v214.8a2.35,2.35,0,0,1-2.66,2.66h-74.62c-1.07,0-2-.88-2.67-2.66l-12.79-32h-5.33a61.33,61.33,0,0,1-16.26,28q-12,12-43.44,12-24.53,0-38.91-7.46t-20.79-24.52q-6.39-17-6.39-46.9V110.52q0-43.71,27.71-66.1T1557.11,22q60.75,0,87.68,21.85t26.91,66.63v57a2.35,2.35,0,0,1-2.66,2.66H1573.1A2.35,2.35,0,0,1,1570.43,167.55Z"/></svg>