<svg width="1677" height="426" viewBox="0 0 1677 426" fill="none" xmlns="http://www.w3.org/2000/svg">
<path d="M1588.5 424.3C1560.9 424.3 1539.3 418 1523.8 405.4C1508.3 392.8 1500.5 374 1500.5 349.1V275.1C1500.5 273.2 1501.5 272.2 1503.4 272.2H1564.6C1566.5 272.2 1567.5 273.2 1567.5 275.1V346.2C1567.5 353.2 1569.1 358.3 1572.2 361.6C1575.3 364.9 1580.6 366.6 1587.9 366.6C1595.3 366.6 1600.5 364.9 1603.6 361.6C1606.7 358.3 1608.3 353.1 1608.3 346.2V291.4C1608.3 279 1604.6 268.5 1597.2 259.9C1589.8 251.3 1578 240.7 1561.6 227.8C1547.2 216.5 1536.2 207.4 1528.7 200.4C1521.2 193.4 1514.5 184.4 1508.9 173.3C1503.3 162.2 1500.4 149.1 1500.4 133.9V75.6C1500.4 51.1 1508.4 32.6 1524.3 19.9C1540.2 7.29996 1561.2 1 1587.3 1C1614.5 1 1636 7.29996 1651.7 19.9C1667.4 32.5 1675.3 51.1 1675.3 75.6V146.7C1675.3 148.6 1674.3 149.6 1672.4 149.6H1611.2C1609.3 149.6 1608.3 148.6 1608.3 146.7V79.1C1608.3 71.7 1606.7 66.4 1603.6 63.1C1600.5 59.8 1595.2 58.1 1587.9 58.1C1580.5 58.1 1575.3 59.8 1572.2 63.1C1569.1 66.4 1567.5 71.7 1567.5 79.1V125.2C1567.5 136.5 1571 146.1 1578 154.1C1585 162.1 1596.3 172.1 1611.8 184.1C1625.4 194.2 1636.4 203.2 1644.7 211.2C1653.1 219.2 1660.2 229 1666.3 240.6C1672.4 252.2 1675.3 265.7 1675.3 280.8V349C1675.3 373.9 1667.4 392.6 1651.7 405.3C1636 417.9 1614.9 424.3 1588.5 424.3ZM1405.4 64V178.9H1470.7C1472.6 178.9 1473.6 179.9 1473.6 181.8V233.6C1473.6 235.5 1472.6 236.5 1470.7 236.5H1405.4V360.7H1482.4C1484.3 360.7 1485.3 361.7 1485.3 363.6V415.5C1485.3 417.4 1484.3 418.4 1482.4 418.4H1341.3C1339.4 418.4 1338.4 417.4 1338.4 415.5V9.69995C1338.4 7.79995 1339.4 6.79999 1341.3 6.79999H1482.4C1484.3 6.79999 1485.3 7.79995 1485.3 9.69995V61C1485.3 62.9 1484.3 63.9 1482.4 63.9H1405.4V64ZM1068.4 418.4C1066.5 418.4 1065.5 417.4 1065.5 415.5V9.69995C1065.5 7.79995 1066.5 6.79999 1068.4 6.79999H1138.9C1140.1 6.79999 1141 7.79995 1141.8 9.69995L1167.5 158.4C1171 177.8 1173.4 198.2 1174.8 219.6C1176.2 241 1177.2 268 1178 300.6H1182.1L1182.7 287.2C1184.3 230.8 1187.6 187.7 1192.6 157.8L1218.3 9.69995C1218.3 7.79995 1219.3 6.79999 1221.2 6.79999H1291.7C1293.6 6.79999 1294.6 7.79995 1294.6 9.69995V415.5C1294.6 417.4 1293.6 418.4 1291.7 418.4H1235.7C1233.8 418.4 1232.8 417.4 1232.8 415.5V352C1232.8 323.6 1233.7 288.6 1235.4 246.8C1237.1 205 1239.4 169.9 1242.1 141.6H1238L1200.7 415.6C1200.7 417.5 1199.7 418.5 1197.8 418.5H1162.2C1160.3 418.5 1159.3 417.5 1159.3 415.6L1122 141.6H1118.5C1120.8 171.5 1122.9 207.6 1124.6 249.7C1126.3 291.8 1127.2 326 1127.2 352V415.5C1127.2 417.4 1126.2 418.4 1124.3 418.4H1068.4ZM962.9 277.9L956.5 225.4C954.6 209.1 952.5 184.8 950.4 152.5C948.3 120.2 947.2 97.7 947.2 84.9H943.7C943.7 98.1 942.5 120.9 940.2 153.1C937.9 185.4 935.7 209.5 933.8 225.4L927.4 277.9H962.9ZM1046.9 415.5C1047.3 416.3 1047.1 417 1046.3 417.5C1045.5 418.1 1044.7 418.4 1044 418.4H982.8C980.9 418.4 979.9 417.4 979.9 415.5L969.9 335.6H919.8L909.9 415.5C909.9 417.4 908.9 418.4 907 418.4H845.8C845 418.4 844.2 418.1 843.5 417.5C842.8 416.9 842.5 416.2 842.9 415.5L899.5 9.69995C900.3 7.79995 901.2 6.79999 902.4 6.79999H988.1C989.3 6.79999 990.2 7.79995 991 9.69995L1046.9 415.5ZM765.3 156.1C763.4 156.1 762.4 155.1 762.4 153.2V79.2C762.4 71.8 760.8 66.5 757.7 63.2C754.6 59.9 749.3 58.2 742 58.2C734.6 58.2 729.4 59.9 726.3 63.2C723.2 66.5 721.6 71.8 721.6 79.2V345C721.6 352 723.3 357.2 726.6 360.7C729.9 364.2 735.2 365.9 742.6 365.9C756.6 365.9 763.6 357.9 763.6 342V240.6H742C740.1 240.6 739.1 239.4 739.1 237.1V186.4C739.1 184.1 740.1 182.9 742 182.9H826.5C828.4 182.9 829.4 184.1 829.4 186.4V415.5C829.4 417.4 828.4 418.4 826.5 418.4H784.5C782.6 418.4 781.6 417.6 781.6 416.1L772.9 382.9H769.4C760.5 410.5 742.8 424.3 716.3 424.3C675.1 424.3 654.5 400.2 654.5 352V75.6C654.5 51.1 662.4 32.6 678.1 19.9C693.8 7.29996 714.9 1 741.4 1C768.6 1 790.1 7.29996 805.8 19.9C821.5 32.5 829.4 51.1 829.4 75.6V153.1C829.4 155 828.4 156 826.5 156H765.3V156.1ZM484.3 64V178.9H549.6C551.5 178.9 552.5 179.9 552.5 181.8V233.6C552.5 235.5 551.5 236.5 549.6 236.5H484.3V360.7H561.3C563.2 360.7 564.2 361.7 564.2 363.6V415.5C564.2 417.4 563.2 418.4 561.3 418.4H420.1C418.2 418.4 417.2 417.4 417.2 415.5V9.69995C417.2 7.79995 418.2 6.79999 420.1 6.79999H561.2C563.1 6.79999 564.1 7.79995 564.1 9.69995V61C564.1 62.9 563.1 63.9 561.2 63.9H484.3V64ZM370.6 6.79999C372.5 6.79999 373.5 7.79995 373.5 9.69995V415.5C373.5 417.4 372.5 418.4 370.6 418.4H309.4C307.5 418.4 306.5 417.4 306.5 415.5V236.5H265.6V415.5C265.6 417.4 264.6 418.4 262.7 418.4H201.5C199.6 418.4 198.6 417.4 198.6 415.5V9.69995C198.6 7.79995 199.6 6.79999 201.5 6.79999H262.7C264.6 6.79999 265.6 7.79995 265.6 9.69995V178.8H306.4V9.69995C306.4 7.79995 307.4 6.79999 309.3 6.79999H370.6ZM179.4 6.79999C181.3 6.79999 182.3 7.99999 182.3 10.3V61C182.3 62.9 181.3 63.9 179.4 63.9H125.2V415.4C125.2 417.3 124.2 418.3 122.3 418.3H61.1C59.2 418.3 58.2 417.3 58.2 415.4V64H3.89999C1.99999 64 1 63 1 61.1V10.4C1 8.09996 1.99999 6.89996 3.89999 6.89996H179.4V6.79999Z" stroke="#3E536B" stroke-width="2"/>
</svg>
